<?xml version="1.0" standalone="no"?>
<!DOCTYPE svg PUBLIC "-//W3C//DTD SVG 20010904//EN"
 "http://www.w3.org/TR/2001/REC-SVG-20010904/DTD/svg10.dtd">
<svg version="1.0" xmlns="http://www.w3.org/2000/svg"
 width="512.000000pt" height="512.000000pt" viewBox="0 0 512.000000 512.000000"
 preserveAspectRatio="xMidYMid meet">
<metadata>
Created by potrace 1.11, written by Peter Selinger 2001-2013
</metadata>
<g transform="translate(0.000000,512.000000) scale(0.100000,-0.100000)"
fill="#000000" stroke="none">
<path d="M0 2560 l0 -2560 2560 0 2560 0 0 2560 0 2560 -2560 0 -2560 0 0
-2560z m2890 2135 c1082 -161 1880 -1084 1880 -2175 0 -740 -366 -1420 -985
-1832 -363 -242 -767 -362 -1210 -362 -362 0 -646 66 -970 224 -667 325 -1124
972 -1215 1720 -13 109 -13 391 0 500 68 561 348 1081 771 1431 355 295 752
461 1219 509 115 12 381 4 510 -15z"/>
<path d="M2460 4370 l0 -110 -110 0 -110 0 0 -110 0 -109 108 -3 107 -3 3 -90
3 -91 -43 -19 c-55 -24 -127 -97 -158 -160 -21 -42 -25 -65 -25 -140 0 -108
19 -159 89 -233 129 -138 338 -143 478 -13 25 22 57 66 73 98 25 50 29 70 30
143 0 67 -5 95 -22 133 -34 73 -78 123 -141 160 l-57 33 0 90 0 89 108 3 107
3 0 109 0 109 -107 3 -108 3 -3 108 -3 107 -109 0 -110 0 0 -110z m185 -720
c110 -68 70 -236 -61 -255 -74 -11 -154 57 -154 132 0 114 119 182 215 123z"/>
<path d="M2905 3103 c-99 -13 -234 -83 -304 -156 l-34 -36 -43 48 c-47 53
-139 106 -218 127 -68 18 -218 18 -291 -1 -80 -21 -168 -70 -220 -122 l-43
-44 -49 25 c-133 67 -283 88 -413 57 -256 -61 -415 -286 -396 -562 18 -269
200 -596 506 -911 l115 -118 1050 0 1051 0 104 103 c340 336 530 679 530 959
0 108 -13 175 -52 255 -81 173 -266 282 -478 283 -90 0 -165 -18 -262 -63
l-71 -32 -45 48 c-94 100 -282 161 -437 140z m147 -234 c72 -16 139 -81 162
-158 60 -202 -37 -422 -322 -735 -92 -102 -307 -306 -322 -306 -4 0 -72 62
-151 138 -364 350 -524 607 -506 810 8 81 34 138 84 183 51 46 100 63 183 63
160 0 280 -117 280 -274 0 -107 -43 -179 -137 -232 l-41 -24 70 -94 c81 -106
190 -220 212 -220 27 0 309 301 295 314 -2 2 -18 11 -36 20 -49 25 -100 83
-117 134 -56 162 37 333 204 378 58 16 77 16 142 3z m-1551 -119 c35 -11 89
-37 119 -58 48 -33 55 -41 52 -67 -5 -58 19 -198 48 -277 66 -181 199 -372
414 -595 l99 -103 -314 0 -314 1 -79 89 c-269 303 -396 558 -384 769 8 138 65
213 188 245 75 20 97 19 171 -4z m2336 -6 c113 -38 167 -121 167 -259 0 -44
-8 -109 -17 -145 -47 -177 -208 -428 -411 -637 l-50 -53 -309 0 -308 0 100
103 c171 175 287 330 369 492 56 113 82 205 89 315 5 70 10 98 22 107 26 20
131 75 160 83 45 14 138 11 188 -6z"/>
<path d="M1530 1100 l0 -120 1045 0 1045 0 0 120 0 120 -1045 0 -1045 0 0
-120z"/>
</g>
</svg>
