<?xml version="1.0" standalone="no"?>
<!DOCTYPE svg PUBLIC "-//W3C//DTD SVG 1.1//EN" "http://www.w3.org/Graphics/SVG/1.1/DTD/svg11.dtd" >
<svg>
<metadata>
Created by FontForge 20120731 at Tue Oct 15 10:19:45 2019
 By www-data
Copyright (c) 2008 by Jonas Hecksher, Playtypea, e-Types. All rights reserved.
</metadata>
<defs>
<font id="Safety" horiz-adv-x="500" >
  <font-face
    font-family="Safety"
    font-weight="400"
    font-stretch="normal"
    units-per-em="1000"
    panose-1="2 0 0 0 0 0 0 0 0 0"
    ascent="750"
    descent="-250"
    x-height="487"
    cap-height="672"
    bbox="-7 -204 1043 867"
    underline-thickness="50"
    underline-position="-50"
    unicode-range="U+0020-FB02"
  />
<missing-glyph horiz-adv-x="160"
 />
    <glyph glyph-name=".notdef" horiz-adv-x="160"
 />
    <glyph glyph-name=".null" horiz-adv-x="0"
 />
    <glyph glyph-name="CR" horiz-adv-x="160"
 />
    <glyph glyph-name="space" unicode=" " horiz-adv-x="160"
 />
    <glyph glyph-name="I" unicode="I" horiz-adv-x="408"
d="M173 89v494c0 9 -6 16 -15 16h-62c-9 0 -16 7 -16 16v41c0 9 7 16 16 16h226c9 0 16 -7 16 -16v-41c0 -9 -7 -16 -16 -16h-42c-9 0 -15 -7 -15 -16v-494c0 -9 6 -16 15 -16h92c9 0 16 -7 16 -16v-41c0 -9 -7 -16 -16 -16h-336c-9 0 -16 7 -16 16v41c0 9 7 16 16 16h122
c9 0 15 7 15 16z" />
    <glyph glyph-name="H" unicode="H" horiz-adv-x="574"
d="M505 656v-640c0 -9 -6 -16 -15 -16h-61c-9 0 -16 7 -16 16v277c0 9 -6 16 -15 16h-222c-9 0 -15 -7 -15 -16v-277c0 -9 -7 -16 -16 -16h-61c-9 0 -15 7 -15 16v640c0 9 6 16 15 16h61c9 0 16 -7 16 -16v-258c0 -9 6 -16 15 -16h222c9 0 15 7 15 16v258c0 9 7 16 16 16h61
c9 0 15 -7 15 -16z" />
    <glyph glyph-name="o" unicode="o" horiz-adv-x="485"
d="M138 350v-213c0 -40 22 -74 105 -74c82 0 104 34 104 74v213c0 40 -22 74 -104 74c-83 0 -105 -34 -105 -74zM50 128v231c0 71 56 138 193 138c136 0 192 -67 192 -138v-231c0 -71 -56 -138 -192 -138c-137 0 -193 67 -193 138z" />
    <glyph glyph-name="O" unicode="O" horiz-adv-x="563"
d="M186 672h191c71 0 127 -57 127 -128v-416c0 -71 -56 -128 -127 -128h-191c-71 0 -127 57 -127 128v416c0 71 56 128 127 128zM359 599h-155c-30 0 -53 -24 -53 -54v-418c0 -30 23 -54 53 -54h155c30 0 53 24 53 54v418c0 30 -23 54 -53 54z" />
    <glyph glyph-name="T" unicode="T" horiz-adv-x="498"
d="M203 16v567c0 9 -6 16 -15 16h-152c-9 0 -16 7 -16 16v41c0 9 7 16 16 16h426c9 0 16 -7 16 -16v-41c0 -9 -7 -16 -16 -16h-152c-9 0 -15 -7 -15 -16v-567c0 -9 -7 -16 -16 -16h-61c-9 0 -15 7 -15 16z" />
    <glyph glyph-name="D" unicode="D" horiz-adv-x="568"
d="M519 445v-218c0 -131 -96 -227 -247 -227h-226c-9 0 -16 7 -16 16v41c0 9 7 16 16 16h32c9 0 15 7 15 16v494c0 9 -6 16 -15 16h-32c-9 0 -16 7 -16 16v41c0 9 7 16 16 16h226c151 0 247 -96 247 -227zM427 238v196c0 99 -56 165 -155 165h-72c-9 0 -15 -7 -15 -16v-494
c0 -9 6 -16 15 -16h72c99 0 155 66 155 165z" />
    <glyph glyph-name="P" unicode="P" horiz-adv-x="538"
d="M93 16v567c0 9 -6 16 -15 16h-32c-9 0 -16 7 -16 16v41c0 9 7 16 16 16h258c141 0 206 -65 206 -206s-65 -206 -206 -206h-65c-9 0 -16 7 -16 16v41c0 9 7 16 16 16h44c100 0 133 32 133 132s-33 134 -133 134h-83c-9 0 -15 -7 -15 -16v-567c0 -9 -7 -16 -16 -16h-61
c-9 0 -15 7 -15 16z" />
    <glyph glyph-name="R" unicode="R" horiz-adv-x="554"
d="M345 309l183 -282c4 -6 5 -11 5 -15c0 -7 -5 -12 -14 -12h-68c-10 0 -16 3 -24 16l-161 255c-9 14 -14 25 -14 42v53c0 9 7 16 16 16h96c30 0 53 24 53 54v109c0 30 -23 54 -53 54h-164c-9 0 -15 -7 -15 -16v-567c0 -9 -7 -16 -16 -16h-61c-9 0 -15 7 -15 16v567
c0 9 -6 16 -15 16h-32c-9 0 -16 7 -16 16v41c0 9 7 16 16 16h336c71 0 127 -57 127 -128v-107c0 -71 -56 -128 -127 -128h-37z" />
    <glyph glyph-name="A" unicode="A" horiz-adv-x="568"
d="M377 298l-71 285c-2 9 -6 16 -15 16h-15c-9 0 -13 -7 -15 -16l-69 -285c-1 -2 -1 -4 -1 -6c0 -7 5 -10 16 -10h155c9 0 16 3 16 11c0 1 -1 3 -1 5zM447 16l-44 177c-2 9 -6 16 -15 16h-206c-9 0 -14 -7 -16 -16l-42 -177c-2 -9 -8 -16 -17 -16h-63c-10 0 -14 6 -14 14
c0 5 2 10 3 16l158 622c3 13 10 20 22 20h141c12 0 19 -7 22 -20l159 -622c1 -6 3 -11 3 -16c0 -8 -4 -14 -14 -14h-60c-9 0 -15 7 -17 16z" />
    <glyph glyph-name="V" unicode="V" horiz-adv-x="528"
d="M286 89l141 567c2 9 8 16 17 16h60c10 0 14 -6 14 -14c0 -5 -2 -10 -3 -16l-157 -622c-3 -13 -10 -20 -22 -20h-145c-12 0 -19 7 -22 20l-156 622c-1 6 -3 11 -3 16c0 8 4 14 14 14h63c9 0 15 -7 17 -16l137 -567c2 -9 6 -16 15 -16h15c9 0 13 7 15 16z" />
    <glyph glyph-name="N" unicode="N" horiz-adv-x="580"
d="M511 656v-640c0 -9 -7 -16 -16 -16h-83c-9 0 -14 8 -18 16l-240 545v-545c0 -9 -7 -16 -16 -16h-54c-9 0 -15 7 -15 16v567c0 12 -3 16 -15 16h-32c-9 0 -16 7 -16 16v41c0 9 7 16 16 16h148c12 0 20 -8 26 -20l230 -516v520c0 9 6 16 15 16h54c9 0 16 -7 16 -16z" />
    <glyph glyph-name="C" unicode="C" horiz-adv-x="514"
d="M392 505v40c0 30 -23 54 -53 54h-135c-30 0 -53 -24 -53 -54v-418c0 -30 23 -54 53 -54h135c30 0 53 24 53 54v54c0 9 6 16 15 16h61c9 0 16 -7 16 -16v-53c0 -71 -56 -128 -127 -128h-171c-71 0 -127 57 -127 128v416c0 71 56 128 127 128h171c71 0 127 -57 127 -128
v-39c0 -9 -7 -16 -16 -16h-61c-9 0 -15 7 -15 16z" />
    <glyph glyph-name="G" unicode="G" horiz-adv-x="526"
d="M394 16v37c0 5 -2 8 -6 8c-2 0 -5 -1 -8 -4c-30 -34 -63 -57 -120 -57h-74c-71 0 -127 57 -127 128v416c0 71 56 128 127 128h252c9 0 16 -7 16 -16v-41c0 -9 -7 -16 -16 -16h-234c-30 0 -53 -24 -53 -54v-418c0 -30 23 -54 53 -54h55c73 0 133 59 133 132v78
c0 9 -6 16 -15 16h-82c-9 0 -16 7 -16 16v41c0 9 7 16 16 16h174c9 0 15 -7 15 -16v-340c0 -9 -6 -16 -15 -16h-59c-9 0 -16 7 -16 16z" />
    <glyph glyph-name="L" unicode="L" horiz-adv-x="454"
d="M69 16v640c0 9 6 16 15 16h61c9 0 16 -7 16 -16v-567c0 -9 6 -16 15 -16h252c9 0 16 -7 16 -16v-41c0 -9 -7 -16 -16 -16h-344c-9 0 -15 7 -15 16z" />
    <glyph glyph-name="U" unicode="U" horiz-adv-x="557"
d="M361 0h-88c-114 0 -204 92 -204 206v450c0 9 6 16 15 16h61c9 0 16 -7 16 -16v-449c0 -73 60 -134 133 -134h49c30 0 53 24 53 54v529c0 9 7 16 16 16h61c9 0 15 -7 15 -16v-528c0 -71 -56 -128 -127 -128z" />
    <glyph glyph-name="W" unicode="W" horiz-adv-x="742"
d="M461 579l62 -490c1 -9 6 -16 15 -16h7c9 0 14 7 15 16l81 567c1 9 8 16 17 16h60c10 0 13 -6 13 -14c0 -5 -1 -10 -2 -16l-97 -622c-2 -13 -10 -20 -22 -20h-137c-12 0 -20 7 -22 20l-62 490c-1 9 -6 16 -15 16h-7c-9 0 -14 -7 -15 -16l-62 -490c-2 -13 -10 -20 -22 -20
h-137c-12 0 -19 7 -22 20l-96 622c-1 6 -2 11 -2 16c0 8 3 14 13 14h63c9 0 15 -7 17 -16l77 -567c2 -9 6 -16 15 -16h7c9 0 14 7 15 16l62 490c2 13 10 20 22 20h137c12 0 20 -7 22 -20z" />
    <glyph glyph-name="M" unicode="M" horiz-adv-x="721"
d="M523 583l-67 -490c-2 -13 -10 -20 -22 -20h-127c-12 0 -20 7 -22 20l-88 490c-1 9 -6 16 -15 16h-8c-9 0 -15 -7 -15 -16v-567c0 -9 -7 -16 -16 -16h-59c-9 0 -15 7 -15 16v640c0 9 6 16 15 16h161c12 0 20 -7 22 -20l85 -490c1 -9 6 -16 15 -16h7c9 0 14 7 15 16l65 490
c2 13 10 20 22 20h161c9 0 15 -7 15 -16v-640c0 -9 -6 -16 -15 -16h-59c-9 0 -16 7 -16 16v567c0 9 -6 16 -15 16h-9c-9 0 -14 -7 -15 -16z" />
    <glyph glyph-name="B" unicode="B" horiz-adv-x="525"
d="M435 544v-97c0 -31 -17 -64 -39 -81c52 -17 89 -65 89 -122v-116c0 -71 -56 -128 -127 -128h-273c-9 0 -16 7 -16 16v640c0 9 7 16 16 16h223c71 0 127 -57 127 -128zM340 309h-179v-220c0 -9 6 -16 15 -16h164c30 0 53 24 53 54v128c0 30 -23 54 -53 54zM161 583v-201
h129c30 0 53 24 53 54v109c0 30 -23 54 -53 54h-114c-9 0 -15 -7 -15 -16z" />
    <glyph glyph-name="Y" unicode="Y" horiz-adv-x="536"
d="M291 407l140 249c7 13 11 16 23 16h54c11 0 17 -4 17 -12c0 -5 -2 -11 -6 -18l-196 -342c-7 -12 -10 -25 -10 -38v-246c0 -9 -7 -16 -16 -16h-61c-9 0 -15 7 -15 16v245c0 14 -3 29 -10 40l-194 341c-4 7 -6 13 -6 18c0 8 6 12 17 12h57c12 0 16 -3 23 -16l138 -249
c4 -8 15 -27 22 -27c9 0 18 19 23 27z" />
    <glyph glyph-name="S" unicode="S" horiz-adv-x="466"
d="M44 73h245c30 0 53 24 53 54v78c0 30 -12 44 -53 64l-124 61c-80 39 -127 62 -127 143v71c0 71 56 128 127 128h222c9 0 16 -7 16 -16v-41c0 -9 -7 -16 -16 -16h-204c-30 0 -53 -24 -53 -54v-68c0 -32 21 -48 53 -64l124 -61c90 -44 127 -68 127 -150v-74
c0 -71 -56 -128 -127 -128h-263c-9 0 -16 7 -16 16v41c0 9 7 16 16 16z" />
    <glyph glyph-name="K" unicode="K" horiz-adv-x="513"
d="M161 656v-640c0 -9 -7 -16 -16 -16h-61c-9 0 -15 7 -15 16v640c0 9 6 16 15 16h61c9 0 16 -7 16 -16zM227 319v53c0 11 1 14 9 26l172 258c8 13 14 16 26 16h51c11 0 17 -4 17 -12c0 -5 -2 -11 -6 -18l-186 -281c-3 -6 -5 -11 -5 -16s2 -9 5 -14l209 -301
c5 -7 7 -13 7 -18c0 -8 -7 -12 -18 -12h-60c-12 0 -19 4 -27 16l-180 260c-11 16 -14 28 -14 43z" />
    <glyph glyph-name="X" unicode="X" horiz-adv-x="532"
d="M131 656l139 -227c2 -3 3 -4 5 -4s3 1 5 4l129 227c7 13 14 16 26 16h51c11 0 17 -4 17 -12c0 -5 -2 -11 -6 -18l-166 -281c-3 -6 -5 -11 -5 -16s2 -9 5 -14l186 -301c4 -7 7 -13 7 -18c0 -8 -7 -12 -18 -12h-55c-12 0 -19 4 -27 16l-156 251c-2 3 -4 5 -6 5s-3 -2 -5 -5
l-151 -251c-7 -13 -14 -16 -26 -16h-54c-11 0 -18 4 -18 12c0 5 3 11 7 18l190 306c4 7 6 12 6 16c0 5 -2 9 -6 16l-170 274c-4 7 -7 13 -7 18c0 8 7 12 18 12h59c12 0 18 -3 26 -16z" />
    <glyph glyph-name="J" unicode="J" horiz-adv-x="471"
d="M194 0h-48c-71 0 -127 57 -127 128v53c0 9 6 16 15 16h61c9 0 16 -7 16 -16v-54c0 -30 23 -54 53 -54h9c82 0 113 49 113 134v376c0 9 -6 16 -15 16h-72c-9 0 -16 7 -16 16v41c0 9 7 16 16 16h234c9 0 16 -7 16 -16v-41c0 -9 -7 -16 -16 -16h-40c-9 0 -15 -7 -15 -16
v-377c0 -114 -70 -206 -184 -206z" />
    <glyph glyph-name="Q" unicode="Q" horiz-adv-x="583"
d="M514 544v-396c0 -60 -38 -128 -77 -128c-9 0 -15 7 -15 16v509c0 30 -23 54 -53 54h-155c-30 0 -53 -24 -53 -54v-418c0 -30 23 -54 53 -54h81l-50 88c-4 6 -5 11 -5 15c0 7 5 12 14 12h55c10 0 16 -3 24 -16l36 -61c9 -14 14 -25 14 -42v-53c0 -9 -7 -16 -16 -16h-171
c-71 0 -127 57 -127 128v416c0 71 56 128 127 128h191c71 0 127 -57 127 -128z" />
    <glyph glyph-name="Z" unicode="Z" horiz-adv-x="444"
d="M298 599h-191c-9 0 -16 -6 -16 -15v-32c0 -9 -7 -16 -16 -16h-41c-9 0 -16 7 -16 16v104c0 9 7 16 16 16h354c9 0 15 -7 15 -16v-58c0 -19 -4 -27 -15 -46l-272 -463c-1 -2 -2 -5 -2 -8c0 -6 10 -8 17 -8h206c9 0 16 6 16 15v32c0 9 7 16 16 16h41c9 0 16 -7 16 -16v-104
c0 -9 -7 -16 -16 -16h-377c-9 0 -15 7 -15 16v57c0 9 4 18 9 26l282 480c2 4 3 7 3 10c0 7 -7 10 -14 10z" />
    <glyph glyph-name="n" unicode="n" horiz-adv-x="489"
d="M60 16v455c0 9 7 16 16 16h51c9 0 15 -7 15 -16v-40c0 -3 2 -5 5 -5c2 0 4 1 5 3c17 39 68 68 132 68c98 0 145 -67 145 -138v-343c0 -9 -7 -16 -16 -16h-57c-9 0 -15 7 -15 16v344c0 35 -31 64 -82 64c-98 0 -111 -47 -111 -104v-304c0 -9 -7 -16 -16 -16h-57
c-9 0 -15 7 -15 16z" />
    <glyph glyph-name="t" unicode="t" horiz-adv-x="320"
d="M96 115v283c0 9 -6 16 -15 16h-55c-9 0 -16 7 -16 16v41c0 9 7 16 16 16h55c9 0 15 7 15 16v93c0 9 6 16 15 16h57c9 0 16 -7 16 -16v-93c0 -9 6 -16 15 -16h95c9 0 16 -7 16 -16v-41c0 -9 -7 -16 -16 -16h-95c-9 0 -15 -7 -15 -16v-258c0 -56 15 -67 55 -67h56
c9 0 15 -7 15 -16v-42c0 -9 -6 -15 -15 -15h-93c-78 0 -106 33 -106 115z" />
    <glyph glyph-name="c" unicode="c" horiz-adv-x="427"
d="M50 196v163c0 71 46 138 183 138c124 0 172 -67 172 -138v-19c0 -9 -7 -16 -16 -16h-54c-9 0 -15 7 -15 16v20c0 30 -17 64 -90 64c-80 0 -92 -34 -92 -64v-165c0 -79 44 -122 123 -122h128c9 0 16 -7 16 -16v-41c0 -9 -7 -16 -16 -16h-143c-129 0 -196 67 -196 196z" />
    <glyph glyph-name="u" unicode="u" horiz-adv-x="483"
d="M340 16v40c0 3 -2 5 -5 5c-2 0 -4 -1 -5 -3c-17 -39 -45 -58 -109 -58h-34c-76 0 -127 49 -127 128v343c0 9 7 16 16 16h57c9 0 15 -7 15 -16v-344c0 -30 23 -54 53 -54h48c73 0 85 37 85 94v304c0 9 7 16 16 16h57c9 0 15 -7 15 -16v-455c0 -9 -7 -16 -16 -16h-51
c-9 0 -15 7 -15 16z" />
    <glyph glyph-name="m" unicode="m" horiz-adv-x="753"
d="M505 487h51c81 0 137 -47 137 -128v-343c0 -9 -7 -16 -16 -16h-57c-9 0 -15 7 -15 16v344c0 30 -23 54 -53 54h-72c-29 0 -53 -22 -53 -50v-348c0 -9 -6 -16 -15 -16h-57c-9 0 -16 7 -16 16v348c0 33 -24 50 -82 50h-12c-73 0 -94 -37 -94 -94v-304c0 -9 -7 -16 -16 -16
h-57c-9 0 -15 7 -15 16v372c0 17 -8 26 -23 26h-4c-9 0 -16 7 -16 16v41c0 9 7 16 16 16h28c42 0 66 -22 73 -56c1 -3 3 -5 5 -5s4 1 5 3c17 39 45 58 109 58h47c42 0 81 -20 95 -56c1 -3 3 -5 5 -5s4 1 5 3c17 39 46 58 97 58z" />
    <glyph glyph-name="h" unicode="h" horiz-adv-x="493"
d="M166 487h140c71 0 127 -57 127 -128v-343c0 -9 -7 -16 -16 -16h-57c-9 0 -15 7 -15 16v344c0 30 -23 54 -53 54h-126c-9 0 -15 -7 -15 -16v-382c0 -9 -7 -16 -16 -16h-57c-9 0 -15 7 -15 16v567c0 9 -6 16 -15 16h-32c-9 0 -16 7 -16 16v41c0 9 7 16 16 16h119
c9 0 16 -7 16 -16v-153c0 -9 6 -16 15 -16z" />
    <glyph glyph-name="F" unicode="F" horiz-adv-x="492"
d="M69 16v528c0 71 56 128 127 128h262c9 0 16 -7 16 -16v-41c0 -9 -7 -16 -16 -16h-244c-30 0 -53 -24 -53 -54v-147c0 -9 6 -16 15 -16h173c9 0 16 -7 16 -16v-41c0 -9 -7 -16 -16 -16h-173c-9 0 -15 -7 -15 -16v-277c0 -9 -7 -16 -16 -16h-61c-9 0 -15 7 -15 16z" />
    <glyph glyph-name="v" unicode="v" horiz-adv-x="436"
d="M234 89l101 382c2 9 8 16 17 16h60c10 0 14 -6 14 -14c0 -5 -2 -10 -3 -16l-122 -437c-4 -13 -10 -20 -22 -20h-121c-12 0 -18 7 -22 20l-123 437c-1 6 -3 11 -3 16c0 8 4 14 14 14h63c9 0 15 -7 17 -16l99 -382c2 -9 6 -16 15 -16c10 0 14 7 16 16z" />
    <glyph glyph-name="f" unicode="f" horiz-adv-x="310"
d="M96 503v34c0 108 76 135 176 135h23c9 0 15 -6 15 -15v-42c0 -9 -6 -16 -15 -16h-26c-67 0 -85 -19 -85 -87v-9c0 -9 6 -16 15 -16h85c9 0 16 -7 16 -16v-41c0 -9 -7 -16 -16 -16h-85c-9 0 -15 -7 -15 -16v-382c0 -9 -7 -16 -16 -16h-57c-9 0 -15 7 -15 16v382
c0 9 -6 16 -15 16h-55c-9 0 -16 7 -16 16v41c0 9 7 16 16 16h55c9 0 15 7 15 16z" />
    <glyph glyph-name="e" unicode="e" horiz-adv-x="469"
d="M138 360v-62c0 -9 6 -16 15 -16h167c9 0 15 7 15 16v62c0 30 -22 64 -95 64c-80 0 -102 -34 -102 -64zM138 199v-4c0 -73 50 -121 123 -121h128c9 0 16 -7 16 -16v-42c0 -9 -7 -16 -16 -16h-143c-114 0 -196 82 -196 196v163c0 71 56 138 193 138c124 0 180 -67 180 -138
v-129c0 -9 -6 -16 -15 -16h-255c-9 0 -15 -6 -15 -15z" />
    <glyph glyph-name="zero" unicode="0"
d="M187 672h126c98 0 147 -50 147 -148v-376c0 -98 -49 -148 -147 -148h-126c-98 0 -147 50 -147 148v376c0 98 49 148 147 148zM295 599h-90c-57 0 -73 -17 -73 -74v-378c0 -57 16 -74 73 -74h90c57 0 73 17 73 74v378c0 57 -16 74 -73 74z" />
    <glyph glyph-name="one" unicode="1"
d="M233 89v461c0 6 -1 8 -3 8s-6 -3 -9 -8l-39 -53c-8 -11 -21 -20 -33 -20h-50c-9 0 -16 7 -16 16v41c0 9 7 16 16 16h10c15 0 23 2 33 16l64 90c10 14 19 16 33 16h66c9 0 16 -7 16 -16v-567c0 -9 6 -16 15 -16h96c9 0 16 -7 16 -16v-41c0 -9 -7 -16 -16 -16h-336
c-9 0 -16 7 -16 16v41c0 9 7 16 16 16h122c9 0 15 7 15 16z" />
    <glyph glyph-name="two" unicode="2"
d="M47 16v83c0 63 11 88 77 138l177 134c50 38 58 60 58 101v53c0 48 -25 74 -73 74h-202c-9 0 -16 7 -16 16v41c0 9 7 16 16 16h220c98 0 147 -50 147 -148v-49c0 -76 -6 -93 -128 -185l-151 -114c-30 -23 -38 -34 -38 -58v-28c0 -13 6 -17 15 -17h204c9 0 16 6 16 15v32
c0 9 7 16 16 16h41c9 0 16 -7 16 -16v-104c0 -9 -7 -16 -16 -16h-364c-9 0 -15 7 -15 16z" />
    <glyph glyph-name="i" unicode="i" horiz-adv-x="274"
d="M177 471v-382c0 -9 6 -16 15 -16h60c9 0 16 -7 16 -16v-41c0 -9 -7 -16 -16 -16h-226c-9 0 -16 7 -16 16v41c0 9 7 16 16 16h48c9 0 15 7 15 16v309c0 9 -6 16 -15 16h-32c-9 0 -16 7 -16 16v41c0 9 7 16 16 16h119c9 0 16 -7 16 -16zM75 624c0 31 27 58 58 58
s58 -27 58 -58s-27 -58 -58 -58s-58 27 -58 58z" />
    <glyph glyph-name="a" unicode="a" horiz-adv-x="453"
d="M172 73h39c73 0 94 37 94 94v72l-133 -30c-35 -8 -53 -32 -53 -63v-19c0 -30 23 -54 53 -54zM393 355v-256c0 -17 8 -26 23 -26h4c9 0 16 -7 16 -16v-41c0 -9 -7 -16 -16 -16h-28c-42 0 -66 22 -73 56c-1 3 -3 5 -5 5s-4 -1 -5 -3c-17 -39 -45 -58 -109 -58h-47
c-71 0 -122 51 -122 122v28c0 71 57 109 127 124l147 31v44c0 53 -52 75 -103 75c-24 0 -62 -4 -90 -7c-23 -3 -37 -6 -42 -6c-7 0 -10 3 -10 11v47c0 11 1 14 10 16c38 8 99 12 129 12c110 0 194 -35 194 -142z" />
    <glyph glyph-name="s" unicode="s" horiz-adv-x="387"
d="M35 80c10 0 91 -17 125 -17c52 0 114 7 114 58c0 46 -65 73 -133 108c-60 31 -119 69 -119 136c0 101 84 132 188 132c30 0 81 -4 119 -12c9 -2 10 -5 10 -16v-47c0 -8 -3 -11 -10 -11c-5 0 -19 3 -42 6c-28 3 -61 7 -80 7c-44 0 -92 -6 -92 -51c0 -33 51 -60 107 -88
c69 -35 146 -75 146 -152c0 -112 -98 -143 -208 -143c-31 0 -95 7 -125 14c-13 3 -14 8 -14 16v45c0 8 6 15 14 15z" />
    <glyph glyph-name="y" unicode="y" horiz-adv-x="436"
d="M86 -121h6c53 0 91 14 107 76l12 45h-53c-12 0 -19 7 -22 20l-121 437c-1 6 -3 11 -3 16c0 8 4 14 14 14h61c9 0 15 -7 17 -16l97 -382c2 -9 6 -16 15 -16h5c9 0 13 7 15 16l99 382c2 9 8 16 17 16h58c10 0 14 -6 14 -14c0 -5 -2 -10 -3 -16l-137 -495
c-31 -113 -73 -156 -174 -156h-24c-9 0 -16 7 -16 16v41c0 9 7 16 16 16z" />
    <glyph glyph-name="b" unicode="b" horiz-adv-x="498"
d="M321 0h-57c-64 0 -92 19 -109 58c-1 2 -3 3 -5 3c-3 0 -5 -2 -5 -5v-40c0 -9 -6 -16 -15 -16h-51c-9 0 -16 7 -16 16v567c0 9 -6 16 -15 16h-32c-9 0 -16 7 -16 16v41c0 9 7 16 16 16h119c9 0 16 -7 16 -16v-153c0 -9 6 -16 15 -16c16 0 45 10 95 10
c150 0 187 -67 187 -138v-231c0 -71 -56 -128 -127 -128zM236 73h71c30 0 53 24 53 54v233c0 30 -13 64 -111 64c-84 0 -98 -17 -98 -26v-231c0 -57 12 -94 85 -94z" />
    <glyph glyph-name="r" unicode="r" horiz-adv-x="399"
d="M87 89v309c0 9 -6 16 -15 16h-32c-9 0 -16 7 -16 16v41c0 9 7 16 16 16h214c71 0 127 -50 127 -121v-13c0 -9 -7 -16 -16 -16h-57c-9 0 -15 7 -15 16v14c0 30 -23 47 -53 47h-50c-9 0 -15 -7 -15 -16v-309c0 -9 6 -16 15 -16h92c9 0 16 -7 16 -16v-41
c0 -9 -7 -16 -16 -16h-242c-9 0 -16 7 -16 16v41c0 9 7 16 16 16h32c9 0 15 7 15 16z" />
    <glyph glyph-name="d" unicode="d" horiz-adv-x="495"
d="M138 360v-233c0 -30 22 -64 103 -64c84 0 106 34 106 64v271c0 9 -5 26 -93 26c-94 0 -116 -34 -116 -64zM435 656v-528c0 -71 -56 -138 -194 -138c-135 0 -191 67 -191 138v231c0 89 63 138 204 138c36 0 63 -10 78 -10c9 0 15 7 15 16v153c0 9 6 16 15 16h57
c9 0 16 -7 16 -16z" />
    <glyph glyph-name="z" unicode="z" horiz-adv-x="402"
d="M34 487h314c9 0 15 -7 15 -16v-58c0 -19 -1 -29 -15 -46l-232 -278c-2 -2 -3 -5 -3 -8c0 -6 11 -8 18 -8h173c9 0 16 6 16 15v32c0 9 7 16 16 16h41c9 0 16 -7 16 -16v-104c0 -9 -7 -16 -16 -16h-344c-9 0 -15 7 -15 16v57c0 9 3 19 9 26l242 295c3 3 4 7 4 10
c0 7 -8 10 -15 10h-151c-9 0 -16 -6 -16 -15v-32c0 -9 -7 -16 -16 -16h-41c-9 0 -16 7 -16 16v104c0 9 7 16 16 16z" />
    <glyph glyph-name="period" unicode="." horiz-adv-x="214"
d="M37 60c0 37 33 70 70 70s70 -33 70 -70s-33 -70 -70 -70s-70 33 -70 70z" />
    <glyph glyph-name="k" unicode="k" horiz-adv-x="455"
d="M183 233v50c0 10 7 20 16 30l144 158c11 11 18 16 30 16h53c11 0 17 -4 17 -12c0 -5 -2 -11 -6 -18l-166 -181c-4 -5 -6 -10 -6 -15s2 -10 6 -15l189 -216c5 -6 8 -12 8 -17c0 -8 -8 -13 -19 -13h-57c-12 0 -23 5 -33 16l-162 186c-10 11 -14 22 -14 31zM151 656v-640
c0 -9 -7 -16 -16 -16h-58c-9 0 -15 7 -15 16v640c0 9 6 16 15 16h58c9 0 16 -7 16 -16z" />
    <glyph glyph-name="hyphen" unicode="-" horiz-adv-x="320"
d="M284 249h-248c-9 0 -16 7 -16 16v41c0 9 7 16 16 16h248c9 0 16 -7 16 -16v-41c0 -9 -7 -16 -16 -16z" />
    <glyph glyph-name="p" unicode="p" horiz-adv-x="498"
d="M151 398v-567c0 -9 -6 -16 -15 -16h-57c-9 0 -16 7 -16 16v567c0 9 -6 16 -15 16h-22c-9 0 -16 7 -16 16v41c0 9 7 16 16 16h295c71 0 127 -57 127 -128v-231c0 -71 -56 -128 -127 -128h-108c-9 0 -16 7 -16 16v41c0 9 7 16 16 16h94c30 0 53 24 53 54v233
c0 30 -23 54 -53 54h-141c-9 0 -15 -7 -15 -16z" />
    <glyph glyph-name="q" unicode="q" horiz-adv-x="495"
d="M347 -105v465c0 30 -23 54 -53 54h-103c-30 0 -53 -24 -53 -54v-233c0 -30 23 -54 53 -54h94c9 0 16 -7 16 -16v-41c0 -9 -7 -16 -16 -16h-108c-71 0 -127 57 -127 128v231c0 71 56 128 127 128h131c71 0 127 -57 127 -128v-464c0 -9 6 -16 15 -16h30c9 0 16 -7 16 -16
v-41c0 -9 -7 -16 -16 -16h-196c-9 0 -16 7 -16 16v41c0 9 7 16 16 16h48c9 0 15 7 15 16z" />
    <glyph glyph-name="j" unicode="j" horiz-adv-x="227"
d="M65 624c0 31 27 58 58 58s58 -27 58 -58s-27 -58 -58 -58s-58 27 -58 58zM79 -21v419c0 9 -6 16 -15 16h-32c-9 0 -16 7 -16 16v41c0 9 7 16 16 16h120c9 0 15 -7 15 -16v-492c0 -103 -54 -173 -148 -173h-11c-9 0 -15 6 -15 15v42c0 9 6 16 15 16h8c34 0 63 29 63 100z
" />
    <glyph glyph-name="four" unicode="4"
d="M342 89v105c0 9 -6 16 -15 16h-258c-9 0 -15 7 -15 16v57c0 9 1 17 3 26l76 347c2 9 6 16 15 16h60c7 0 11 -5 11 -12s-1 -14 -3 -22l-75 -339c0 -2 -1 -3 -1 -5c0 -9 8 -11 16 -11h171c9 0 15 7 15 16v197c0 9 6 16 15 16h57c9 0 16 -7 16 -16v-407c0 -9 6 -16 15 -16
h12c9 0 16 -7 16 -16v-41c0 -9 -7 -16 -16 -16h-176c-9 0 -16 7 -16 16v41c0 9 7 16 16 16h46c9 0 15 7 15 16z" />
    <glyph glyph-name="comma" unicode="," horiz-adv-x="214"
d="M171 27l-76 -173c-3 -6 -7 -12 -13 -12c-2 0 -6 1 -8 2l-29 11c-6 2 -11 6 -11 12c0 2 1 5 2 7l48 120c-27 10 -47 37 -47 66c0 37 33 70 70 70s70 -33 70 -70c0 -4 -1 -21 -6 -33z" />
    <glyph glyph-name="quoteright" unicode="&#x2019;" horiz-adv-x="214"
d="M166 568l-71 -162c-3 -6 -7 -12 -13 -12c-2 0 -6 1 -8 2l-29 11c-6 2 -11 5 -11 11c0 2 1 6 2 8l48 120c-27 10 -47 37 -47 66c0 37 33 70 70 70s70 -33 70 -70c0 -12 -4 -28 -11 -44z" />
    <glyph glyph-name="quotesingle" unicode="'" horiz-adv-x="214"
d="M107 409c-15 0 -29 13 -33 28c-4 16 -28 127 -28 178c0 37 24 67 61 67s61 -30 61 -67c0 -51 -24 -162 -28 -178c-4 -15 -18 -28 -33 -28z" />
    <glyph glyph-name="g" unicode="g" horiz-adv-x="495"
d="M347 89v231c0 60 -14 94 -94 94h-62c-30 0 -53 -24 -53 -54v-223c0 -40 22 -74 115 -74c89 0 94 17 94 26zM343 429c1 -2 3 -3 5 -3c3 0 5 2 5 5v40c0 9 6 16 15 16h51c9 0 16 -7 16 -16v-537c0 -71 -46 -138 -196 -138c-134 0 -180 59 -180 108v8c0 9 7 16 16 16h55
c9 0 13 -10 16 -18c6 -17 24 -41 95 -41c93 0 106 34 106 64v51c0 9 -6 16 -15 16c-23 0 -45 -10 -89 -10c-147 0 -193 67 -193 138v231c0 71 56 128 127 128h65c64 0 84 -19 101 -58z" />
    <glyph glyph-name="eight" unicode="8"
d="M313 0h-127c-98 0 -147 50 -147 148v86c0 78 37 125 89 142c-32 17 -49 50 -49 81v87c0 71 56 128 127 128h87c71 0 127 -57 127 -128v-87c0 -31 -17 -64 -49 -81c52 -17 89 -63 89 -142v-86c0 -98 -49 -148 -147 -148zM204 73h91c48 0 73 26 73 74v98
c0 48 -25 74 -73 74h-91c-48 0 -73 -26 -73 -74v-98c0 -48 25 -74 73 -74zM224 392h51c30 0 53 24 53 54v99c0 30 -23 54 -53 54h-51c-30 0 -53 -24 -53 -54v-99c0 -30 23 -54 53 -54z" />
    <glyph glyph-name="seven" unicode="7"
d="M338 599h-203c-9 0 -16 -6 -16 -15v-32c0 -9 -7 -16 -16 -16h-41c-9 0 -16 7 -16 16v104c0 9 7 16 16 16h374c9 0 15 -7 15 -16v-50c0 -9 -3 -20 -9 -33l-200 -439c-9 -21 -14 -55 -14 -77v-41c0 -9 -7 -16 -16 -16h-61c-9 0 -15 7 -15 16v58c0 19 6 46 15 66l202 443
c1 2 1 4 1 6c0 7 -9 10 -16 10z" />
    <glyph glyph-name="x" unicode="x" horiz-adv-x="451"
d="M126 471l106 -150l104 150c8 12 14 16 26 16h44c11 0 18 -4 18 -12c0 -5 -2 -11 -7 -18l-139 -202l159 -225c5 -7 7 -13 7 -18c0 -8 -7 -12 -18 -12h-51c-12 0 -19 4 -27 16l-124 175l-128 -175c-8 -12 -14 -16 -26 -16h-44c-11 0 -18 5 -18 13c0 5 2 10 7 17l164 223
l-144 204c-5 7 -7 13 -7 18c0 8 7 12 18 12h54c12 0 17 -4 26 -16z" />
    <glyph glyph-name="w" unicode="w" horiz-adv-x="670"
d="M395 20l-53 348c-1 6 -3 10 -7 10c-3 0 -5 -4 -6 -10l-52 -348c-2 -13 -10 -20 -22 -20h-119c-12 0 -19 7 -22 20l-91 437c-1 6 -2 11 -2 16c0 8 3 14 13 14h61c9 0 15 -7 17 -16l67 -382c2 -9 6 -16 15 -16h5c9 0 14 7 15 16l54 352c1 9 8 16 17 16h103
c9 0 16 -7 17 -16l52 -352c1 -9 6 -16 15 -16h5c9 0 13 7 15 16l69 382c2 9 8 16 17 16h58c10 0 13 -6 13 -14c0 -5 -1 -10 -2 -16l-90 -437c-3 -13 -10 -20 -22 -20h-118c-12 0 -20 7 -22 20z" />
    <glyph glyph-name="three" unicode="3"
d="M242 399h33c119 0 177 -75 177 -150c0 -159 -154 -259 -366 -259c-9 0 -16 7 -16 16v44c0 9 7 16 16 16c174 0 274 70 274 174c0 59 -40 81 -102 81h-110c-9 0 -15 7 -15 16v43c0 10 7 18 15 26l169 169c6 6 9 11 9 15c0 7 -9 9 -16 9h-175c-9 0 -16 -6 -16 -15v-32
c0 -9 -7 -16 -16 -16h-41c-9 0 -16 7 -16 16v104c0 9 7 16 16 16h354c9 0 15 -7 15 -16v-57c0 -9 -2 -19 -9 -26z" />
    <glyph glyph-name="five" unicode="5"
d="M86 66c174 0 274 70 274 174c0 59 -40 81 -102 81h-170c-9 0 -15 7 -15 16v319c0 9 6 16 15 16h334c9 0 16 -7 16 -16v-41c0 -9 -7 -16 -16 -16h-252c-9 0 -15 -7 -15 -16v-184h120c119 0 177 -75 177 -150c0 -159 -154 -259 -366 -259c-9 0 -16 7 -16 16v44
c0 9 7 16 16 16z" />
    <glyph glyph-name="ring" unicode="&#x2da;" horiz-adv-x="249"
d="M27 627c0 54 43 97 97 97s97 -43 97 -97s-43 -97 -97 -97s-97 43 -97 97zM81 627c0 -24 19 -43 43 -43s43 19 43 43s-19 43 -43 43s-43 -19 -43 -43z" />
    <glyph glyph-name="aring" unicode="&#xe5;" horiz-adv-x="466"
d="M182 73h39c73 0 94 37 94 94v72l-133 -30c-35 -8 -53 -32 -53 -63v-19c0 -30 23 -54 53 -54zM403 355v-256c0 -17 8 -26 23 -26h4c9 0 16 -7 16 -16v-41c0 -9 -7 -16 -16 -16h-28c-42 0 -66 22 -73 56c-1 3 -3 5 -5 5s-4 -1 -5 -3c-17 -39 -45 -58 -109 -58h-47
c-71 0 -122 51 -122 122v28c0 71 57 109 127 124l147 31v44c0 53 -52 75 -103 75c-24 0 -62 -4 -90 -7c-23 -3 -37 -6 -42 -6c-7 0 -10 3 -10 11v47c0 11 1 14 10 16c38 8 99 12 129 12c110 0 194 -35 194 -142zM135 627c0 54 43 97 97 97s97 -43 97 -97s-43 -97 -97 -97
s-97 43 -97 97zM189 627c0 -24 19 -43 43 -43s43 19 43 43s-19 43 -43 43s-43 -19 -43 -43z" />
    <glyph glyph-name="quoteleft" unicode="&#x2018;" horiz-adv-x="214"
d="M39 496l76 173c3 6 7 12 14 12c2 0 5 -1 7 -2l29 -11c6 -2 11 -5 11 -11c0 -2 -1 -6 -2 -8l-48 -120c27 -10 47 -37 47 -66c0 -37 -33 -70 -70 -70s-70 33 -70 70c0 4 1 21 6 33z" />
    <glyph glyph-name="six" unicode="6"
d="M366 598c-145 0 -216 -88 -230 -199h178c98 0 148 -51 148 -149v-102c0 -98 -49 -148 -147 -148h-126c-98 0 -147 50 -147 148v208c0 171 106 316 307 316h17c9 0 16 -7 16 -16v-42c0 -9 -7 -16 -16 -16zM207 73h90c51 0 73 23 73 74v103c0 51 -22 74 -73 74h-163v-177
c0 -51 22 -74 73 -74z" />
    <glyph glyph-name="nine" unicode="9"
d="M298 299h-113c-98 0 -147 50 -147 148v77c0 91 56 148 147 148h126c92 0 147 -56 147 -148v-119c0 -91 -28 -145 -81 -227l-105 -166c-5 -8 -8 -12 -20 -12h-77c-6 0 -9 5 -9 10c0 3 1 6 3 9l109 169c48 75 88 119 88 211v126c0 45 -25 74 -73 74h-90
c-46 0 -73 -28 -73 -74v-79c0 -57 16 -74 73 -74h95c9 0 16 -7 16 -16v-41c0 -9 -7 -16 -16 -16z" />
    <glyph glyph-name="colon" unicode=":" horiz-adv-x="214"
d="M37 60c0 37 33 70 70 70s70 -33 70 -70s-33 -70 -70 -70s-70 33 -70 70zM37 427c0 37 33 70 70 70s70 -33 70 -70s-33 -70 -70 -70s-70 33 -70 70z" />
    <glyph glyph-name="semicolon" unicode=";" horiz-adv-x="214"
d="M37 427c0 37 33 70 70 70s70 -33 70 -70s-33 -70 -70 -70s-70 33 -70 70zM171 27l-76 -173c-3 -6 -7 -12 -13 -12c-2 0 -6 1 -8 2l-29 11c-6 2 -11 6 -11 12c0 2 1 5 2 7l48 120c-27 10 -47 37 -47 66c0 37 33 70 70 70s70 -33 70 -70c0 -4 -1 -21 -6 -33z" />
    <glyph glyph-name="question" unicode="?"
d="M158 222v15c0 62 9 86 54 123l49 41c48 41 58 60 58 101v43c0 30 -23 54 -53 54h-222c-9 0 -16 7 -16 16v41c0 9 7 16 16 16h240c71 0 127 -57 127 -128v-46c0 -76 -38 -109 -91 -155l-47 -41c-17 -15 -23 -24 -23 -52v-28c0 -9 -7 -16 -16 -16h-61c-9 0 -15 7 -15 16z
M140 60c0 37 33 70 70 70s70 -33 70 -70s-33 -70 -70 -70s-70 33 -70 70z" />
    <glyph glyph-name="ae" unicode="&#xe6;" horiz-adv-x="731"
d="M400 199v-4c0 -73 50 -121 123 -121h128c9 0 16 -7 16 -16v-42c0 -9 -7 -16 -16 -16h-139c-60 0 -110 22 -145 59c-16 -37 -57 -59 -98 -59h-116c-71 0 -122 57 -122 128v28c0 71 56 128 127 128h157v56c0 50 -33 74 -83 74h-156c-9 0 -16 7 -16 16v41c0 9 7 16 16 16
h160c53 0 92 -13 117 -37c23 23 55 37 90 37h115c71 0 127 -57 127 -128v-129c0 -9 -6 -16 -15 -16h-255c-9 0 -15 -6 -15 -15zM172 73h89c46 0 54 24 54 54v87h-143c-30 0 -53 -24 -53 -54v-33c0 -30 23 -54 53 -54zM400 360v-60c0 -9 6 -16 15 -16h167c9 0 15 7 15 16v60
c0 30 -23 54 -53 54h-91c-30 0 -53 -24 -53 -54z" />
    <glyph glyph-name="at" unicode="@" horiz-adv-x="885"
d="M393 73h89c46 0 54 24 54 54v76h-143c-30 0 -53 -24 -53 -54v-22c0 -30 23 -54 53 -54zM615 -194h-228c-206 0 -327 92 -327 298v270c0 194 113 298 307 298h151c194 0 307 -104 307 -298v-186c0 -125 -59 -188 -157 -188h-55c-40 0 -68 17 -76 50
c-7 -25 -37 -50 -76 -50h-87c-71 0 -122 57 -122 128v17c0 71 56 128 127 128h157v87c0 30 -23 54 -53 54h-86c-30 0 -53 -24 -53 -54v-5c0 -9 -6 -16 -15 -16h-54c-9 0 -16 7 -16 16v4c0 71 56 128 127 128h111c71 0 127 -57 127 -128v-270c0 -9 6 -16 15 -16h11
c57 0 83 30 83 114v188c0 153 -80 224 -233 224h-115c-153 0 -233 -71 -233 -224v-272c0 -156 97 -224 253 -224h210c9 0 15 -7 15 -16v-42c0 -9 -6 -15 -15 -15z" />
    <glyph glyph-name="Oslash" unicode="&#xd8;" horiz-adv-x="563"
d="M186 672h191c71 0 127 -57 127 -128v-416c0 -71 -56 -128 -127 -128h-191c-71 0 -127 57 -127 128v416c0 71 56 128 127 128zM359 73c30 0 53 24 53 54v326l-260 -339c6 -24 26 -41 52 -41h155zM359 599h-155c-30 0 -53 -24 -53 -54v-325l259 341c-7 22 -27 38 -51 38z
" />
    <glyph glyph-name="acute" unicode="&#xb4;" horiz-adv-x="218"
d="M119 672h46c12 0 24 -4 24 -16c0 -9 -8 -19 -15 -25l-80 -72c-10 -9 -18 -12 -28 -12h-34c-7 0 -14 5 -14 12c0 5 2 12 7 18l63 75c9 10 19 20 31 20z" />
    <glyph glyph-name="eacute" unicode="&#xe9;" horiz-adv-x="469"
d="M138 360v-62c0 -9 6 -16 15 -16h167c9 0 15 7 15 16v62c0 30 -22 64 -95 64c-80 0 -102 -34 -102 -64zM138 199v-4c0 -73 50 -121 123 -121h128c9 0 16 -7 16 -16v-42c0 -9 -7 -16 -16 -16h-143c-114 0 -196 82 -196 196v163c0 71 56 138 193 138c124 0 180 -67 180 -138
v-129c0 -9 -6 -16 -15 -16h-255c-9 0 -15 -6 -15 -15zM297 672h46c12 0 24 -4 24 -16c0 -9 -8 -19 -15 -25l-80 -72c-10 -9 -18 -12 -28 -12h-34c-7 0 -14 5 -14 12c0 5 2 12 7 18l63 75c9 10 19 20 31 20z" />
    <glyph glyph-name="Aring" unicode="&#xc5;" horiz-adv-x="568"
d="M447 16l-44 177c-2 9 -6 16 -15 16h-206c-9 0 -14 -7 -16 -16l-42 -177c-2 -9 -8 -16 -17 -16h-63c-10 0 -14 6 -14 14c0 5 2 10 3 16l155 609c-20 22 -32 51 -32 84c0 69 54 124 124 124c69 0 124 -55 124 -124c0 -30 -10 -57 -27 -78l158 -615c1 -6 3 -11 3 -16
c0 -8 -4 -14 -14 -14h-60c-9 0 -15 7 -17 16zM375 306l-69 277c-2 9 -6 16 -15 16h-15c-9 0 -13 -7 -15 -16l-67 -276c-1 -4 -3 -13 -3 -14c0 -8 7 -11 16 -11h155c9 0 16 3 16 11c0 2 -1 7 -3 13zM225 723c0 -31 24 -55 55 -55s55 24 55 55s-24 55 -55 55s-55 -24 -55 -55z
" />
    <glyph glyph-name="endash" unicode="&#x2013;"
d="M484 249h-468c-9 0 -16 7 -16 16v41c0 9 7 16 16 16h468c9 0 16 -7 16 -16v-41c0 -9 -7 -16 -16 -16z" />
    <glyph glyph-name="slash" unicode="/" horiz-adv-x="407"
d="M2 0l345 700c3 7 8 11 14 11c2 0 5 -1 7 -2l30 -16c6 -3 9 -8 9 -14c0 -2 -1 -5 -2 -7l-345 -700c-3 -6 -7 -9 -12 -9c-3 0 -6 1 -9 3l-30 14c-6 3 -9 8 -9 13c0 2 1 5 2 7z" />
    <glyph glyph-name="periodcentered" unicode="&#xb7;" horiz-adv-x="214"
d="M37 350c0 37 33 70 70 70s70 -33 70 -70s-33 -70 -70 -70s-70 33 -70 70z" />
    <glyph glyph-name="oslash" unicode="&#xf8;" horiz-adv-x="485"
d="M50 128v231c0 71 56 138 193 138c136 0 192 -67 192 -138v-231c0 -71 -56 -138 -192 -138c-137 0 -193 67 -193 138zM138 350v-173l202 206c-11 24 -39 41 -97 41c-83 0 -105 -34 -105 -74zM243 63c82 0 104 34 104 74v162l-199 -202c14 -20 42 -34 95 -34z" />
    <glyph glyph-name="ellipsis" unicode="&#x2026;" horiz-adv-x="642"
d="M37 60c0 37 33 70 70 70s70 -33 70 -70s-33 -70 -70 -70s-70 33 -70 70zM251 60c0 37 33 70 70 70s70 -33 70 -70s-33 -70 -70 -70s-70 33 -70 70zM465 60c0 37 33 70 70 70s70 -33 70 -70s-33 -70 -70 -70s-70 33 -70 70z" />
    <glyph glyph-name="quotedblright" unicode="&#x201d;" horiz-adv-x="404"
d="M166 568l-71 -162c-3 -6 -7 -12 -13 -12c-2 0 -6 1 -8 2l-29 11c-6 2 -11 5 -11 11c0 2 1 6 2 8l48 120c-27 10 -47 37 -47 66c0 37 33 70 70 70s70 -33 70 -70c0 -12 -4 -28 -11 -44zM356 568l-71 -162c-3 -6 -7 -12 -13 -12c-2 0 -6 1 -8 2l-29 11c-6 2 -11 5 -11 11
c0 2 1 6 2 8l48 120c-27 10 -47 37 -47 66c0 37 33 70 70 70s70 -33 70 -70c0 -12 -4 -28 -11 -44z" />
    <glyph glyph-name="quotedblleft" unicode="&#x201c;" horiz-adv-x="404"
d="M39 496l76 173c3 6 7 12 14 12c2 0 5 -1 7 -2l29 -11c6 -2 11 -5 11 -11c0 -2 -1 -6 -2 -8l-48 -120c27 -10 47 -37 47 -66c0 -37 -33 -70 -70 -70s-70 33 -70 70c0 4 1 21 6 33zM229 496l76 173c3 6 7 12 14 12c2 0 5 -1 7 -2l29 -11c6 -2 11 -5 11 -11
c0 -2 -1 -6 -2 -8l-48 -120c27 -10 47 -37 47 -66c0 -37 -33 -70 -70 -70s-70 33 -70 70c0 4 1 21 6 33z" />
    <glyph glyph-name="emdash" unicode="&#x2014;" horiz-adv-x="1000"
d="M984 249h-968c-9 0 -16 7 -16 16v41c0 9 7 16 16 16h968c9 0 16 -7 16 -16v-41c0 -9 -7 -16 -16 -16z" />
    <glyph glyph-name="apple" horiz-adv-x="752"
 />
    <glyph glyph-name="minus" unicode="&#x2212;"
d="M424 249h-348c-9 0 -16 7 -16 16v41c0 9 7 16 16 16h348c9 0 16 -7 16 -16v-41c0 -9 -7 -16 -16 -16z" />
    <glyph glyph-name="plus" unicode="+"
d="M424 249h-138v-138c0 -9 -7 -16 -16 -16h-41c-9 0 -16 7 -16 16v138h-137c-9 0 -16 7 -16 16v41c0 9 7 16 16 16h137v137c0 9 7 16 16 16h41c9 0 16 -7 16 -16v-137h138c9 0 16 -7 16 -16v-41c0 -9 -7 -16 -16 -16z" />
    <glyph glyph-name="bar" unicode="|" horiz-adv-x="342"
d="M150 6v660c0 9 6 16 15 16h11c9 0 16 -7 16 -16v-660c0 -9 -7 -16 -16 -16h-11c-9 0 -15 7 -15 16z" />
    <glyph glyph-name="numbersign" unicode="#"
d="M318 16v210h-136v-210c0 -9 -7 -16 -16 -16h-11c-9 0 -15 7 -15 16v210h-80c-9 0 -16 6 -16 15v11c0 9 7 16 16 16h80v136h-80c-9 0 -16 6 -16 15v11c0 9 7 16 16 16h80v210c0 9 6 16 15 16h11c9 0 16 -7 16 -16v-210h136v210c0 9 6 16 15 16h11c9 0 16 -7 16 -16v-210
h80c9 0 16 -7 16 -16v-11c0 -9 -7 -15 -16 -15h-80v-136h80c9 0 16 -7 16 -16v-11c0 -9 -7 -15 -16 -15h-80v-210c0 -9 -7 -16 -16 -16h-11c-9 0 -15 7 -15 16zM182 404v-136h136v136h-136z" />
    <glyph glyph-name="exclam" unicode="!" horiz-adv-x="300"
d="M80 60c0 37 33 70 70 70s70 -33 70 -70s-33 -70 -70 -70s-70 33 -70 70zM150 205c-11 0 -20 9 -23 20s-38 339 -38 390c0 37 24 67 61 67s61 -30 61 -67c0 -51 -35 -379 -38 -390s-13 -20 -23 -20z" />
    <glyph glyph-name="backslash" unicode="\" horiz-adv-x="407"
d="M60 700l345 -700c1 -2 2 -5 2 -7c0 -5 -3 -10 -9 -13l-30 -14c-3 -2 -6 -3 -9 -3c-5 0 -9 3 -12 9l-345 700c-1 2 -2 5 -2 7c0 6 3 11 9 14l30 16c2 1 5 2 7 2c6 0 11 -4 14 -11z" />
    <glyph glyph-name="equal" unicode="="
d="M424 349h-348c-9 0 -16 7 -16 16v41c0 9 7 16 16 16h348c9 0 16 -7 16 -16v-41c0 -9 -7 -16 -16 -16zM424 149h-348c-9 0 -16 7 -16 16v41c0 9 7 16 16 16h348c9 0 16 -7 16 -16v-41c0 -9 -7 -16 -16 -16z" />
    <glyph glyph-name="multiply" unicode="&#xd7;"
d="M398 383l-97 -98l97 -98c7 -6 7 -16 0 -22l-28 -29c-7 -7 -17 -7 -23 0l-98 97l-97 -96c-6 -7 -16 -7 -22 0l-29 28c-7 7 -7 17 0 23l97 97l-97 97c-7 6 -7 16 0 23l29 28c6 7 16 7 22 0l97 -96l98 97c6 7 16 7 23 0l28 -29c7 -6 7 -16 0 -22z" />
    <glyph glyph-name="underscore" unicode="_"
d="M484 -194h-468c-9 0 -16 7 -16 16v41c0 9 7 16 16 16h468c9 0 16 -7 16 -16v-41c0 -9 -7 -16 -16 -16z" />
    <glyph glyph-name="dotlessi" unicode="&#x131;" horiz-adv-x="264"
d="M177 471v-382c0 -9 6 -16 15 -16h60c9 0 16 -7 16 -16v-41c0 -9 -7 -16 -16 -16h-226c-9 0 -16 7 -16 16v41c0 9 7 16 16 16h48c9 0 15 7 15 16v309c0 9 -6 16 -15 16h-32c-9 0 -16 7 -16 16v41c0 9 7 16 16 16h119c9 0 16 -7 16 -16z" />
    <glyph glyph-name="dotaccent" unicode="&#x2d9;" horiz-adv-x="264"
d="M75 624c0 31 27 58 58 58s58 -27 58 -58s-27 -58 -58 -58s-58 27 -58 58z" />
    <glyph glyph-name="quotedbl" unicode="&#x22;" horiz-adv-x="404"
d="M107 409c-15 0 -29 13 -33 28c-4 16 -28 127 -28 178c0 37 24 67 61 67s61 -30 61 -67c0 -51 -24 -162 -28 -178c-4 -15 -18 -28 -33 -28zM297 409c-15 0 -29 13 -33 28c-4 16 -28 127 -28 178c0 37 24 67 61 67s61 -30 61 -67c0 -51 -24 -162 -28 -178
c-4 -15 -18 -28 -33 -28z" />
    <glyph glyph-name="AE" unicode="&#xc6;" horiz-adv-x="836"
d="M429 16v193h-233l-89 -193c-4 -8 -13 -16 -22 -16h-60c-10 0 -15 6 -15 14c0 5 2 11 4 16l298 622c6 12 13 20 25 20h461c9 0 16 -7 16 -16v-41c0 -9 -7 -16 -16 -16h-262c-9 0 -15 -7 -15 -16v-185c0 -9 6 -16 15 -16h173c9 0 16 -7 16 -16v-41c0 -9 -7 -16 -16 -16
h-173c-9 0 -15 -7 -15 -16v-204c0 -9 6 -16 15 -16h262c9 0 16 -7 16 -16v-41c0 -9 -7 -16 -16 -16h-354c-9 0 -15 7 -15 16zM369 583l-139 -301h199v317h-42c-9 0 -14 -8 -18 -16z" />
    <glyph glyph-name="dieresis" unicode="&#xa8;" horiz-adv-x="262"
d="M20 635c0 26 21 47 47 47s47 -21 47 -47s-21 -47 -47 -47s-47 21 -47 47zM148 635c0 26 22 47 47 47c26 0 47 -21 47 -47s-21 -47 -47 -47c-25 0 -47 21 -47 47z" />
    <glyph glyph-name="parenright" unicode=")" horiz-adv-x="298"
d="M32 649h-16c-9 0 -16 7 -16 16v41c0 9 7 16 16 16h16c151 0 187 -66 187 -197v-468c0 -131 -36 -197 -187 -197h-16c-9 0 -16 7 -16 16v41c0 9 7 16 16 16h16c89 0 105 36 105 135v446c0 99 -16 135 -105 135z" />
    <glyph glyph-name="parenleft" unicode="(" horiz-adv-x="298"
d="M281 649h-16c-89 0 -105 -36 -105 -135v-446c0 -99 16 -135 105 -135h16c9 0 16 -7 16 -16v-41c0 -9 -7 -16 -16 -16h-16c-151 0 -187 66 -187 197v468c0 131 36 197 187 197h16c9 0 16 -7 16 -16v-41c0 -9 -7 -16 -16 -16z" />
    <glyph glyph-name="degree" unicode="&#xb0;" horiz-adv-x="345"
d="M20 529c0 85 67 153 152 153s153 -68 153 -153s-68 -152 -153 -152s-152 67 -152 152zM91 529c0 -45 36 -81 81 -81c46 0 81 36 81 81c0 46 -35 81 -81 81c-45 0 -81 -35 -81 -81z" />
    <glyph glyph-name="greater" unicode="&#x3e;"
d="M351 302l-275 101c-9 3 -16 8 -16 17v47c0 10 7 14 15 14c5 0 10 -1 15 -3l330 -122c13 -5 20 -10 20 -22v-90c0 -12 -7 -17 -20 -22l-330 -123c-5 -2 -10 -3 -15 -3c-8 0 -15 4 -15 14v45c0 9 7 14 16 17l275 99c9 3 16 6 16 15c0 10 -7 13 -16 16z" />
    <glyph glyph-name="less" unicode="&#x3c;"
d="M424 403l-275 -101c-9 -3 -16 -6 -16 -16c0 -9 7 -12 16 -15l275 -99c9 -3 16 -8 16 -17v-45c0 -10 -7 -14 -15 -14c-5 0 -10 1 -15 3l-330 123c-13 5 -20 10 -20 22v90c0 12 7 17 20 22l330 122c5 2 10 3 15 3c8 0 15 -4 15 -14v-47c0 -9 -7 -14 -16 -17z" />
    <glyph glyph-name="bullet" unicode="&#x2022;" horiz-adv-x="494"
d="M50 310c0 104 93 197 197 197s197 -93 197 -197s-93 -197 -197 -197s-197 93 -197 197z" />
    <glyph glyph-name="quotesinglbase" unicode="&#x201a;" horiz-adv-x="214"
d="M171 27l-76 -173c-3 -6 -7 -12 -13 -12c-2 0 -6 1 -8 2l-29 11c-6 2 -11 6 -11 12c0 2 1 5 2 7l48 120c-27 10 -47 37 -47 66c0 37 33 70 70 70s70 -33 70 -70c0 -4 -1 -21 -6 -33z" />
    <glyph glyph-name="percent" unicode="%" horiz-adv-x="739"
d="M36 529c0 85 67 153 152 153s153 -68 153 -153s-68 -152 -153 -152s-152 67 -152 152zM107 529c0 -45 36 -81 81 -81c46 0 81 36 81 81c0 46 -35 81 -81 81c-45 0 -81 -35 -81 -81zM174 27l317 645c3 7 8 10 14 10c2 0 7 -1 11 -3l26 -14c5 -3 9 -8 9 -14
c0 -2 -1 -5 -2 -7l-317 -645c-3 -6 -7 -9 -12 -9c-3 0 -6 1 -9 3l-30 14c-6 3 -9 8 -9 13c0 2 1 4 2 7zM398 141c0 85 67 153 152 153s153 -68 153 -153s-68 -152 -153 -152s-152 67 -152 152zM469 141c0 -45 36 -81 81 -81c46 0 81 36 81 81c0 46 -35 81 -81 81
c-45 0 -81 -35 -81 -81z" />
    <glyph glyph-name="fraction" unicode="&#x2044;" horiz-adv-x="379"
d="M2 27l317 645c4 9 12 13 21 9l30 -16c8 -4 11 -13 7 -21l-317 -645c-4 -9 -13 -11 -21 -6l-30 14c-8 4 -11 12 -7 20z" />
    <glyph glyph-name="Eacute" unicode="&#xc9;" horiz-adv-x="476"
d="M69 16v640c0 9 6 16 15 16h354c9 0 16 -7 16 -16v-41c0 -9 -7 -16 -16 -16h-262c-9 0 -15 -7 -15 -16v-185c0 -9 6 -16 15 -16h173c9 0 16 -7 16 -16v-41c0 -9 -7 -16 -16 -16h-173c-9 0 -15 -7 -15 -16v-204c0 -9 6 -16 15 -16h262c9 0 16 -7 16 -16v-41
c0 -9 -7 -16 -16 -16h-354c-9 0 -15 7 -15 16zM310 857h46c12 0 24 -4 24 -16c0 -9 -8 -19 -15 -25l-80 -72c-10 -9 -18 -12 -28 -12h-34c-7 0 -14 5 -14 12c0 5 2 12 7 18l63 75c9 10 19 20 31 20z" />
    <glyph glyph-name="quotedblbase" unicode="&#x201e;" horiz-adv-x="404"
d="M171 27l-76 -173c-3 -6 -7 -12 -13 -12c-2 0 -6 1 -8 2l-29 11c-6 2 -11 6 -11 12c0 2 1 5 2 7l48 120c-27 10 -47 37 -47 66c0 37 33 70 70 70s70 -33 70 -70c0 -4 -1 -21 -6 -33zM361 27l-76 -173c-3 -6 -7 -12 -13 -12c-2 0 -6 1 -8 2l-29 11c-6 2 -11 6 -11 12
c0 2 1 5 2 7l48 120c-27 10 -47 37 -47 66c0 37 33 70 70 70s70 -33 70 -70c0 -4 -1 -21 -6 -33z" />
    <glyph glyph-name="trademark" unicode="&#x2122;" horiz-adv-x="529"
d="M79 442v197h-52c-8 0 -11 4 -11 9v14c0 7 3 10 11 10h147c6 0 12 -3 12 -10v-14c0 -5 -6 -9 -12 -9h-51v-197c0 -7 -6 -10 -12 -10h-21c-8 0 -11 3 -11 10zM428 638l-46 -171c-2 -7 -5 -9 -14 -9h-40c-7 0 -12 2 -14 9l-53 171v-196c0 -7 -6 -10 -12 -10h-21
c-7 0 -11 3 -11 10v220c0 7 4 10 11 10h56c7 0 12 -3 14 -10l50 -169l43 168c2 8 7 11 14 11h55c7 0 11 -3 11 -10v-220c0 -7 -4 -10 -11 -10h-21c-5 0 -11 3 -11 10v196z" />
    <glyph glyph-name="bracketleft" unicode="[" horiz-adv-x="298"
d="M88 -124v830c0 9 6 16 15 16h164c9 0 16 -7 16 -16v-31c0 -9 -7 -16 -16 -16h-82c-9 0 -15 -7 -15 -16v-704c0 -9 6 -16 15 -16h82c9 0 16 -7 16 -16v-31c0 -9 -7 -16 -16 -16h-164c-9 0 -15 7 -15 16z" />
    <glyph glyph-name="bracketright" unicode="]" horiz-adv-x="298"
d="M210 706v-830c0 -9 -6 -16 -15 -16h-164c-9 0 -16 7 -16 16v31c0 9 7 16 16 16h82c9 0 15 7 15 16v704c0 9 -6 16 -15 16h-82c-9 0 -16 7 -16 16v31c0 9 7 16 16 16h164c9 0 15 -7 15 -16z" />
    <glyph glyph-name="guillemotleft" unicode="&#xab;" horiz-adv-x="436"
d="M30 262v49c0 12 10 25 20 34l130 128c5 5 11 7 16 7c7 0 14 -5 14 -14v-30c0 -14 -1 -16 -16 -36l-75 -99c-6 -7 -8 -10 -8 -15s2 -8 8 -15l75 -99c15 -20 16 -22 16 -36v-30c0 -9 -7 -14 -14 -14c-5 0 -11 2 -16 7l-130 129c-10 9 -20 22 -20 34zM220 262v49
c0 12 10 25 20 34l130 128c5 5 11 7 16 7c7 0 14 -5 14 -14v-30c0 -14 -1 -16 -16 -36l-75 -99c-6 -7 -8 -10 -8 -15s2 -8 8 -15l75 -99c15 -20 16 -22 16 -36v-30c0 -9 -7 -14 -14 -14c-5 0 -11 2 -16 7l-130 129c-10 9 -20 22 -20 34z" />
    <glyph glyph-name="guilsinglleft" unicode="&#x2039;" horiz-adv-x="246"
d="M30 262v49c0 12 10 25 20 34l130 128c5 5 11 7 16 7c7 0 14 -5 14 -14v-30c0 -14 -1 -16 -16 -36l-75 -99c-6 -7 -8 -10 -8 -15s2 -8 8 -15l75 -99c15 -20 16 -22 16 -36v-30c0 -9 -7 -14 -14 -14c-5 0 -11 2 -16 7l-130 129c-10 9 -20 22 -20 34z" />
    <glyph glyph-name="guilsinglright" unicode="&#x203a;" horiz-adv-x="246"
d="M216 311v-49c0 -12 -10 -25 -20 -34l-130 -129c-5 -5 -11 -7 -16 -7c-7 0 -14 5 -14 14v30c0 14 1 16 16 36l75 99c6 7 8 10 8 15s-2 8 -8 15l-75 99c-15 20 -16 22 -16 36v30c0 9 7 14 14 14c5 0 11 -2 16 -7l130 -128c10 -9 20 -22 20 -34z" />
    <glyph glyph-name="guillemotright" unicode="&#xbb;" horiz-adv-x="436"
d="M216 311v-49c0 -12 -10 -25 -20 -34l-130 -129c-5 -5 -11 -7 -16 -7c-7 0 -14 5 -14 14v30c0 14 1 16 16 36l75 99c6 7 8 10 8 15s-2 8 -8 15l-75 99c-15 20 -16 22 -16 36v30c0 9 7 14 14 14c5 0 11 -2 16 -7l130 -128c10 -9 20 -22 20 -34zM406 311v-49
c0 -12 -10 -25 -20 -34l-130 -129c-5 -5 -11 -7 -16 -7c-7 0 -14 5 -14 14v30c0 14 1 16 16 36l75 99c6 7 8 10 8 15s-2 8 -8 15l-75 99c-15 20 -16 22 -16 36v30c0 9 7 14 14 14c5 0 11 -2 16 -7l130 -128c10 -9 20 -22 20 -34z" />
    <glyph glyph-name="fi" unicode="&#xfb01;" horiz-adv-x="574"
d="M96 503v34c0 108 76 135 176 135h23c9 0 15 -6 15 -15v-42c0 -9 -6 -16 -15 -16h-26c-67 0 -85 -19 -85 -87v-9c0 -9 6 -16 15 -16h85c9 0 16 -7 16 -16v-41c0 -9 -7 -16 -16 -16h-85c-9 0 -15 -7 -15 -16v-382c0 -9 -7 -16 -16 -16h-57c-9 0 -15 7 -15 16v382
c0 9 -6 16 -15 16h-55c-9 0 -16 7 -16 16v41c0 9 7 16 16 16h55c9 0 15 7 15 16zM487 471v-382c0 -9 6 -16 15 -16h60c9 0 16 -7 16 -16v-41c0 -9 -7 -16 -16 -16h-226c-9 0 -16 7 -16 16v41c0 9 7 16 16 16h48c9 0 15 7 15 16v309c0 9 -6 16 -15 16h-32c-9 0 -16 7 -16 16
v41c0 9 7 16 16 16h119c9 0 16 -7 16 -16zM385 624c0 31 27 58 58 58s58 -27 58 -58s-27 -58 -58 -58s-58 27 -58 58z" />
    <glyph glyph-name="fl" unicode="&#xfb02;" horiz-adv-x="533"
d="M96 503v34c0 108 76 135 176 135h23c9 0 15 -6 15 -15v-42c0 -9 -6 -16 -15 -16h-26c-67 0 -85 -19 -85 -87v-9c0 -9 6 -16 15 -16h85c9 0 16 -7 16 -16v-41c0 -9 -7 -16 -16 -16h-85c-9 0 -15 -7 -15 -16v-382c0 -9 -7 -16 -16 -16h-57c-9 0 -15 7 -15 16v382
c0 9 -6 16 -15 16h-55c-9 0 -16 7 -16 16v41c0 9 7 16 16 16h55c9 0 15 7 15 16zM373 115v541c0 9 6 16 15 16h57c9 0 16 -7 16 -16v-521c0 -49 12 -67 41 -67c9 0 15 -7 15 -16v-37c0 -9 -6 -15 -15 -15h-33c-71 0 -96 33 -96 115z" />
    <glyph glyph-name="ampersand" unicode="&#x26;" horiz-adv-x="614"
d="M574 0h-19c-76 0 -97 1 -146 63l-21 26l-61 -54c-27 -23 -52 -35 -104 -35h-33c-137 0 -163 71 -163 142v37c0 39 18 86 59 114l93 63l-29 36c-28 35 -41 70 -41 126v26c0 71 34 138 171 138s164 -67 164 -138v-32c0 -66 -20 -98 -84 -139l-57 -36l105 -134l130 116
c3 2 8 6 11 6c5 0 9 -3 13 -7l27 -35c2 -3 3 -6 3 -9c0 -4 -2 -9 -6 -12l-133 -117l22 -27c22 -25 40 -45 78 -45h21c9 0 15 -7 15 -16v-42c0 -9 -6 -15 -15 -15zM115 176v-29c0 -40 12 -74 95 -74h14c29 0 59 18 88 44l32 28l-121 153l-70 -47c-27 -18 -38 -42 -38 -75z
M258 394l54 34c33 21 44 52 44 86v21c0 40 -2 74 -75 74c-83 0 -84 -34 -84 -74v-23c0 -29 6 -47 25 -71z" />
    <glyph glyph-name="exclamdown" unicode="&#xa1;" horiz-adv-x="300"
d="M80 427c0 37 33 70 70 70s70 -33 70 -70s-33 -70 -70 -70s-70 33 -70 70zM150 282c10 0 20 -9 23 -20s38 -339 38 -390c0 -37 -24 -67 -61 -67s-61 30 -61 67c0 51 35 379 38 390s12 20 23 20z" />
    <glyph glyph-name="paragraph" unicode="&#xb6;" horiz-adv-x="614"
d="M471 16v585c0 9 -6 16 -15 16h-94c-9 0 -15 -7 -15 -16v-585c0 -9 -6 -16 -15 -16h-31c-9 0 -16 7 -16 16v244h-49c-141 0 -206 65 -206 206s65 206 206 206h334c9 0 16 -7 16 -16v-23c0 -9 -7 -16 -16 -16h-22c-9 0 -15 -7 -15 -16v-585c0 -9 -7 -16 -16 -16h-31
c-9 0 -15 7 -15 16zM285 315v286c0 9 -6 16 -15 16h-33c-100 0 -133 -52 -133 -152s33 -150 133 -150h48z" />
    <glyph glyph-name="pi" unicode="&#x3c0;" horiz-adv-x="517"
d="M184 398v-382c0 -9 -7 -16 -16 -16h-57c-9 0 -15 7 -15 16v382c0 9 -6 16 -15 16h-55c-9 0 -16 7 -16 16v41c0 9 7 16 16 16h465c9 0 16 -7 16 -16v-41c0 -9 -7 -16 -16 -16h-55c-9 0 -15 -7 -15 -16v-258c0 -56 15 -67 55 -67h16c9 0 15 -7 15 -16v-42
c0 -9 -6 -15 -15 -15h-53c-78 0 -106 33 -106 115v283c0 9 -6 16 -15 16h-119c-9 0 -15 -7 -15 -16z" />
    <glyph glyph-name="questiondown" unicode="&#xbf;"
d="M351 266v-15c0 -62 -9 -86 -54 -123l-49 -41c-48 -41 -58 -60 -58 -101v-43c0 -30 23 -54 53 -54h222c9 0 16 -7 16 -16v-41c0 -9 -7 -16 -16 -16h-240c-71 0 -127 57 -127 128v46c0 76 38 109 91 155l47 41c17 15 23 24 23 52v28c0 9 7 16 16 16h61c9 0 15 -7 15 -16z
M369 428c0 -37 -33 -70 -70 -70s-70 33 -70 70s33 70 70 70s70 -33 70 -70z" />
    <glyph glyph-name="circumflex" unicode="&#x2c6;" horiz-adv-x="288"
d="M129 672h30c12 0 25 -10 34 -20l68 -75c5 -6 7 -13 7 -18c0 -7 -7 -12 -14 -12h-40c-10 0 -13 2 -22 12l-33 34c-6 7 -10 9 -15 9s-9 -2 -15 -9l-33 -34c-9 -10 -12 -12 -22 -12h-40c-7 0 -14 5 -14 12c0 5 2 12 7 18l68 75c9 10 22 20 34 20z" />
    <glyph glyph-name="grave" unicode="`" horiz-adv-x="218"
d="M42 672h46c12 0 22 -10 31 -20l63 -75c5 -6 7 -13 7 -18c0 -7 -7 -12 -14 -12h-34c-10 0 -18 3 -28 12l-80 72c-7 6 -15 16 -15 25c0 12 12 16 24 16z" />
    <glyph glyph-name="egrave" unicode="&#xe8;" horiz-adv-x="469"
d="M138 360v-62c0 -9 6 -16 15 -16h167c9 0 15 7 15 16v62c0 30 -22 64 -95 64c-80 0 -102 -34 -102 -64zM138 199v-4c0 -73 50 -121 123 -121h128c9 0 16 -7 16 -16v-42c0 -9 -7 -16 -16 -16h-143c-114 0 -196 82 -196 196v163c0 71 56 138 193 138c124 0 180 -67 180 -138
v-129c0 -9 -6 -16 -15 -16h-255c-9 0 -15 -6 -15 -15zM122 672h46c12 0 22 -10 31 -20l63 -75c5 -6 7 -13 7 -18c0 -7 -7 -12 -14 -12h-34c-10 0 -18 3 -28 12l-80 72c-7 6 -15 16 -15 25c0 12 12 16 24 16z" />
    <glyph glyph-name="caron" unicode="&#x2c7;" horiz-adv-x="288"
d="M162 547h-36c-12 0 -23 9 -31 20l-68 85c-5 6 -7 13 -7 18c0 7 7 12 14 12h40c10 0 13 -2 22 -12l33 -34c6 -7 10 -9 15 -9s9 2 15 9l33 34c9 10 12 12 22 12h40c7 0 14 -5 14 -12c0 -5 -2 -12 -7 -18l-68 -85c-8 -11 -19 -20 -31 -20z" />
    <glyph glyph-name="dagger" unicode="&#x2020;" horiz-adv-x="440"
d="M176 -169v567c0 9 -6 16 -15 16h-135c-9 0 -16 7 -16 16v41c0 9 7 16 16 16h135c9 0 15 7 15 16v153c0 9 6 16 15 16h57c9 0 16 -7 16 -16v-153c0 -9 6 -16 15 -16h135c9 0 16 -7 16 -16v-41c0 -9 -7 -16 -16 -16h-135c-9 0 -15 -7 -15 -16v-567c0 -9 -7 -16 -16 -16h-57
c-9 0 -15 7 -15 16z" />
    <glyph glyph-name="perthousand" unicode="&#x2030;" horiz-adv-x="1079"
d="M36 529c0 85 67 153 152 153s153 -68 153 -153s-68 -152 -153 -152s-152 67 -152 152zM107 529c0 -45 36 -81 81 -81c46 0 81 36 81 81c0 46 -35 81 -81 81c-45 0 -81 -35 -81 -81zM174 27l317 645c3 7 8 11 14 11c2 0 5 -1 7 -2l30 -16c6 -3 9 -8 9 -14
c0 -2 -1 -5 -2 -7l-317 -645c-3 -6 -7 -9 -12 -9c-3 0 -6 1 -9 3l-30 14c-6 3 -9 8 -9 13c0 2 1 5 2 7zM398 141c0 85 67 153 152 153s153 -68 153 -153s-68 -152 -153 -152s-152 67 -152 152zM469 141c0 -45 36 -81 81 -81c46 0 81 36 81 81c0 46 -35 81 -81 81
c-45 0 -81 -35 -81 -81zM738 141c0 85 67 153 152 153s153 -68 153 -153s-68 -152 -153 -152s-152 67 -152 152zM809 141c0 -45 36 -81 81 -81c46 0 81 36 81 81c0 46 -35 81 -81 81c-45 0 -81 -35 -81 -81z" />
    <glyph glyph-name="plusminus" unicode="&#xb1;"
d="M424 249h-138v-138c0 -9 -7 -16 -16 -16h-41c-9 0 -16 7 -16 16v138h-137c-9 0 -16 7 -16 16v41c0 9 7 16 16 16h137v137c0 9 7 16 16 16h41c9 0 16 -7 16 -16v-137h138c9 0 16 -7 16 -16v-41c0 -9 -7 -16 -16 -16zM424 0h-348c-9 0 -16 7 -16 16v41c0 9 7 16 16 16h348
c9 0 16 -7 16 -16v-41c0 -9 -7 -16 -16 -16z" />
    <glyph glyph-name="adieresis" unicode="&#xe4;" horiz-adv-x="453"
d="M172 73h39c73 0 94 37 94 94v72l-133 -30c-35 -8 -53 -32 -53 -63v-19c0 -30 23 -54 53 -54zM393 355v-256c0 -17 8 -26 23 -26h4c9 0 16 -7 16 -16v-41c0 -9 -7 -16 -16 -16h-28c-42 0 -66 22 -73 56c-1 3 -3 5 -5 5s-4 -1 -5 -3c-17 -39 -45 -58 -109 -58h-47
c-71 0 -122 51 -122 122v28c0 71 57 109 127 124l147 31v44c0 53 -52 75 -103 75c-24 0 -62 -4 -90 -7c-23 -3 -37 -6 -42 -6c-7 0 -10 3 -10 11v47c0 11 1 14 10 16c38 8 99 12 129 12c110 0 194 -35 194 -142zM115 635c0 26 21 47 47 47s47 -21 47 -47s-21 -47 -47 -47
s-47 21 -47 47zM243 635c0 26 22 47 47 47c26 0 47 -21 47 -47s-21 -47 -47 -47c-25 0 -47 21 -47 47z" />
    <glyph glyph-name="edieresis" unicode="&#xeb;" horiz-adv-x="469"
d="M138 360v-62c0 -9 6 -16 15 -16h167c9 0 15 7 15 16v62c0 30 -22 64 -95 64c-80 0 -102 -34 -102 -64zM138 199v-4c0 -73 50 -121 123 -121h128c9 0 16 -7 16 -16v-42c0 -9 -7 -16 -16 -16h-143c-114 0 -196 82 -196 196v163c0 71 56 138 193 138c124 0 180 -67 180 -138
v-129c0 -9 -6 -16 -15 -16h-255c-9 0 -15 -6 -15 -15zM123 635c0 26 21 47 47 47s47 -21 47 -47s-21 -47 -47 -47s-47 21 -47 47zM251 635c0 26 22 47 47 47c26 0 47 -21 47 -47s-21 -47 -47 -47c-25 0 -47 21 -47 47z" />
    <glyph glyph-name="ecircumflex" unicode="&#xea;" horiz-adv-x="469"
d="M138 360v-62c0 -9 6 -16 15 -16h167c9 0 15 7 15 16v62c0 30 -22 64 -95 64c-80 0 -102 -34 -102 -64zM138 199v-4c0 -73 50 -121 123 -121h128c9 0 16 -7 16 -16v-42c0 -9 -7 -16 -16 -16h-143c-114 0 -196 82 -196 196v163c0 71 56 138 193 138c124 0 180 -67 180 -138
v-129c0 -9 -6 -16 -15 -16h-255c-9 0 -15 -6 -15 -15zM219 672h30c12 0 25 -10 34 -20l68 -75c5 -6 7 -13 7 -18c0 -7 -7 -12 -14 -12h-40c-10 0 -13 2 -22 12l-33 34c-6 7 -10 9 -15 9s-9 -2 -15 -9l-33 -34c-9 -10 -12 -12 -22 -12h-40c-7 0 -14 5 -14 12c0 5 2 12 7 18
l68 75c9 10 22 20 34 20z" />
    <glyph glyph-name="logicalnot" unicode="&#xac;"
d="M440 306v-195c0 -9 -7 -16 -16 -16h-41c-9 0 -16 7 -16 16v138h-291c-9 0 -16 7 -16 16v41c0 9 7 16 16 16h348c9 0 16 -7 16 -16z" />
    <glyph glyph-name="zcaron" unicode="&#x17e;" horiz-adv-x="402"
d="M34 487h314c9 0 15 -7 15 -16v-58c0 -19 -1 -29 -15 -46l-232 -278c-2 -2 -3 -5 -3 -8c0 -6 11 -8 18 -8h173c9 0 16 6 16 15v32c0 9 7 16 16 16h41c9 0 16 -7 16 -16v-104c0 -9 -7 -16 -16 -16h-344c-9 0 -15 7 -15 16v57c0 9 3 19 9 26l242 295c3 3 4 7 4 10
c0 7 -8 10 -15 10h-151c-9 0 -16 -6 -16 -15v-32c0 -9 -7 -16 -16 -16h-41c-9 0 -16 7 -16 16v104c0 9 7 16 16 16zM219 547h-36c-12 0 -23 9 -31 20l-68 85c-5 6 -7 13 -7 18c0 7 7 12 14 12h40c10 0 13 -2 22 -12l33 -34c6 -7 10 -9 15 -9s9 2 15 9l33 34
c9 10 12 12 22 12h40c7 0 14 -5 14 -12c0 -5 -2 -12 -7 -18l-68 -85c-8 -11 -19 -20 -31 -20z" />
    <glyph glyph-name="lessequal" unicode="&#x2264;"
d="M424 403l-275 -101c-9 -3 -16 -6 -16 -16c0 -9 7 -12 16 -15l275 -99c9 -3 16 -8 16 -17v-45c0 -10 -7 -14 -15 -14c-5 0 -10 1 -15 3l-330 123c-13 5 -20 10 -20 22v90c0 12 7 17 20 22l330 122c5 2 10 3 15 3c8 0 15 -4 15 -14v-47c0 -9 -7 -14 -16 -17zM424 0h-348
c-9 0 -16 7 -16 16v41c0 9 7 16 16 16h348c9 0 16 -7 16 -16v-41c0 -9 -7 -16 -16 -16z" />
    <glyph glyph-name="greaterequal" unicode="&#x2265;"
d="M351 302l-275 101c-9 3 -16 8 -16 17v47c0 10 7 14 15 14c5 0 10 -1 15 -3l330 -122c13 -5 20 -10 20 -22v-90c0 -12 -7 -17 -20 -22l-330 -123c-5 -2 -10 -3 -15 -3c-8 0 -15 4 -15 14v45c0 9 7 14 16 17l275 99c9 3 16 6 16 15c0 10 -7 13 -16 16zM424 0h-348
c-9 0 -16 7 -16 16v41c0 9 7 16 16 16h348c9 0 16 -7 16 -16v-41c0 -9 -7 -16 -16 -16z" />
    <glyph glyph-name="daggerdbl" unicode="&#x2021;" horiz-adv-x="440"
d="M131 226l42 160c2 8 3 14 3 18c0 8 -4 10 -15 10h-135c-9 0 -16 7 -16 16v41c0 9 7 16 16 16h135c9 0 15 7 15 16v153c0 9 6 16 15 16h57c9 0 16 -7 16 -16v-153c0 -9 6 -16 15 -16h135c9 0 16 -7 16 -16v-41c0 -9 -7 -16 -16 -16h-127c-9 0 -19 -8 -23 -16l-90 -190
c-4 -8 -10 -16 -19 -16h-14c-8 0 -15 2 -15 11c0 5 2 13 5 23zM309 261l-42 -160c-2 -8 -3 -14 -3 -18c0 -8 4 -10 15 -10h135c9 0 16 -7 16 -16v-41c0 -9 -7 -16 -16 -16h-135c-9 0 -15 -7 -15 -16v-153c0 -9 -6 -16 -15 -16h-57c-9 0 -16 7 -16 16v153c0 9 -6 16 -15 16
h-135c-9 0 -16 7 -16 16v41c0 9 7 16 16 16h127c9 0 19 8 23 16l90 190c4 8 10 16 19 16h14c8 0 15 -2 15 -11c0 -5 -2 -13 -5 -23z" />
    <glyph glyph-name="divide" unicode="&#xf7;"
d="M180 100c0 37 33 70 70 70s70 -33 70 -70s-33 -70 -70 -70s-70 33 -70 70zM180 467c0 37 33 70 70 70s70 -33 70 -70s-33 -70 -70 -70s-70 33 -70 70zM424 249h-348c-9 0 -16 7 -16 16v41c0 9 7 16 16 16h348c9 0 16 -7 16 -16v-41c0 -9 -7 -16 -16 -16z" />
    <glyph glyph-name="florin" unicode="&#x192;"
d="M195 -34v432c0 9 -6 16 -15 16h-55c-9 0 -16 7 -16 16v41c0 9 7 16 16 16h55c9 0 15 7 15 16v34c0 108 76 135 176 135h23c9 0 15 -6 15 -15v-42c0 -9 -6 -16 -15 -16h-26c-67 0 -85 -19 -85 -87v-9c0 -9 6 -16 15 -16h85c9 0 16 -7 16 -16v-41c0 -9 -7 -16 -16 -16h-85
c-9 0 -15 -7 -15 -16v-457c0 -108 -76 -135 -176 -135h-23c-9 0 -15 6 -15 15v42c0 9 6 16 15 16h26c67 0 85 19 85 87z" />
    <glyph glyph-name="Adieresis" unicode="&#xc4;" horiz-adv-x="568"
d="M377 298l-71 285c-2 9 -6 16 -15 16h-15c-9 0 -13 -7 -15 -16l-69 -285c-1 -2 -1 -4 -1 -6c0 -7 5 -10 16 -10h155c9 0 16 3 16 11c0 1 -1 3 -1 5zM447 16l-44 177c-2 9 -6 16 -15 16h-206c-9 0 -14 -7 -16 -16l-42 -177c-2 -9 -8 -16 -17 -16h-63c-10 0 -14 6 -14 14
c0 5 2 10 3 16l158 622c3 13 10 20 22 20h141c12 0 19 -7 22 -20l159 -622c1 -6 3 -11 3 -16c0 -8 -4 -14 -14 -14h-60c-9 0 -15 7 -17 16zM173 820c0 26 21 47 47 47s47 -21 47 -47s-21 -47 -47 -47s-47 21 -47 47zM301 820c0 26 22 47 47 47c26 0 47 -21 47 -47
s-21 -47 -47 -47c-25 0 -47 21 -47 47z" />
    <glyph glyph-name="Odieresis" unicode="&#xd6;" horiz-adv-x="563"
d="M186 672h191c71 0 127 -57 127 -128v-416c0 -71 -56 -128 -127 -128h-191c-71 0 -127 57 -127 128v416c0 71 56 128 127 128zM359 599h-155c-30 0 -53 -24 -53 -54v-418c0 -30 23 -54 53 -54h155c30 0 53 24 53 54v418c0 30 -23 54 -53 54zM170 820c0 26 21 47 47 47
s47 -21 47 -47s-21 -47 -47 -47s-47 21 -47 47zM298 820c0 26 22 47 47 47c26 0 47 -21 47 -47s-21 -47 -47 -47c-25 0 -47 21 -47 47z" />
    <glyph glyph-name="Udieresis" unicode="&#xdc;" horiz-adv-x="557"
d="M361 0h-88c-114 0 -204 92 -204 206v450c0 9 6 16 15 16h61c9 0 16 -7 16 -16v-449c0 -73 60 -134 133 -134h49c30 0 53 24 53 54v529c0 9 7 16 16 16h61c9 0 15 -7 15 -16v-528c0 -71 -56 -128 -127 -128zM167 820c0 26 21 47 47 47s47 -21 47 -47s-21 -47 -47 -47
s-47 21 -47 47zM295 820c0 26 22 47 47 47c26 0 47 -21 47 -47s-21 -47 -47 -47c-25 0 -47 21 -47 47z" />
    <glyph glyph-name="aacute" unicode="&#xe1;" horiz-adv-x="453"
d="M172 73h39c73 0 94 37 94 94v72l-133 -30c-35 -8 -53 -32 -53 -63v-19c0 -30 23 -54 53 -54zM393 355v-256c0 -17 8 -26 23 -26h4c9 0 16 -7 16 -16v-41c0 -9 -7 -16 -16 -16h-28c-42 0 -66 22 -73 56c-1 3 -3 5 -5 5s-4 -1 -5 -3c-17 -39 -45 -58 -109 -58h-47
c-71 0 -122 51 -122 122v28c0 71 57 109 127 124l147 31v44c0 53 -52 75 -103 75c-24 0 -62 -4 -90 -7c-23 -3 -37 -6 -42 -6c-7 0 -10 3 -10 11v47c0 11 1 14 10 16c38 8 99 12 129 12c110 0 194 -35 194 -142zM242 672h46c12 0 24 -4 24 -16c0 -9 -8 -19 -15 -25l-80 -72
c-10 -9 -18 -12 -28 -12h-34c-7 0 -14 5 -14 12c0 5 2 12 7 18l63 75c9 10 19 20 31 20z" />
    <glyph glyph-name="agrave" unicode="&#xe0;" horiz-adv-x="453"
d="M172 73h39c73 0 94 37 94 94v72l-133 -30c-35 -8 -53 -32 -53 -63v-19c0 -30 23 -54 53 -54zM393 355v-256c0 -17 8 -26 23 -26h4c9 0 16 -7 16 -16v-41c0 -9 -7 -16 -16 -16h-28c-42 0 -66 22 -73 56c-1 3 -3 5 -5 5s-4 -1 -5 -3c-17 -39 -45 -58 -109 -58h-47
c-71 0 -122 51 -122 122v28c0 71 57 109 127 124l147 31v44c0 53 -52 75 -103 75c-24 0 -62 -4 -90 -7c-23 -3 -37 -6 -42 -6c-7 0 -10 3 -10 11v47c0 11 1 14 10 16c38 8 99 12 129 12c110 0 194 -35 194 -142zM165 672h46c12 0 22 -10 31 -20l63 -75c5 -6 7 -13 7 -18
c0 -7 -7 -12 -14 -12h-34c-10 0 -18 3 -28 12l-80 72c-7 6 -15 16 -15 25c0 12 12 16 24 16z" />
    <glyph glyph-name="acircumflex" unicode="&#xe2;" horiz-adv-x="453"
d="M172 73h39c73 0 94 37 94 94v72l-133 -30c-35 -8 -53 -32 -53 -63v-19c0 -30 23 -54 53 -54zM393 355v-256c0 -17 8 -26 23 -26h4c9 0 16 -7 16 -16v-41c0 -9 -7 -16 -16 -16h-28c-42 0 -66 22 -73 56c-1 3 -3 5 -5 5s-4 -1 -5 -3c-17 -39 -45 -58 -109 -58h-47
c-71 0 -122 51 -122 122v28c0 71 57 109 127 124l147 31v44c0 53 -52 75 -103 75c-24 0 -62 -4 -90 -7c-23 -3 -37 -6 -42 -6c-7 0 -10 3 -10 11v47c0 11 1 14 10 16c38 8 99 12 129 12c110 0 194 -35 194 -142zM211 672h30c12 0 25 -10 34 -20l68 -75c5 -6 7 -13 7 -18
c0 -7 -7 -12 -14 -12h-40c-10 0 -13 2 -22 12l-33 34c-6 7 -10 9 -15 9s-9 -2 -15 -9l-33 -34c-9 -10 -12 -12 -22 -12h-40c-7 0 -14 5 -14 12c0 5 2 12 7 18l68 75c9 10 22 20 34 20z" />
    <glyph glyph-name="iacute" unicode="&#xed;" horiz-adv-x="264"
d="M177 471v-382c0 -9 6 -16 15 -16h60c9 0 16 -7 16 -16v-41c0 -9 -7 -16 -16 -16h-226c-9 0 -16 7 -16 16v41c0 9 7 16 16 16h48c9 0 15 7 15 16v309c0 9 -6 16 -15 16h-32c-9 0 -16 7 -16 16v41c0 9 7 16 16 16h119c9 0 16 -7 16 -16zM147 672h46c12 0 24 -4 24 -16
c0 -9 -8 -19 -15 -25l-80 -72c-10 -9 -18 -12 -28 -12h-34c-7 0 -14 5 -14 12c0 5 2 12 7 18l63 75c9 10 19 20 31 20z" />
    <glyph glyph-name="igrave" unicode="&#xec;" horiz-adv-x="264"
d="M177 471v-382c0 -9 6 -16 15 -16h60c9 0 16 -7 16 -16v-41c0 -9 -7 -16 -16 -16h-226c-9 0 -16 7 -16 16v41c0 9 7 16 16 16h48c9 0 15 7 15 16v309c0 9 -6 16 -15 16h-32c-9 0 -16 7 -16 16v41c0 9 7 16 16 16h119c9 0 16 -7 16 -16zM70 672h46c12 0 22 -10 31 -20
l63 -75c5 -6 7 -13 7 -18c0 -7 -7 -12 -14 -12h-34c-10 0 -18 3 -28 12l-80 72c-7 6 -15 16 -15 25c0 12 12 16 24 16z" />
    <glyph glyph-name="icircumflex" unicode="&#xee;" horiz-adv-x="264"
d="M177 471v-382c0 -9 6 -16 15 -16h60c9 0 16 -7 16 -16v-41c0 -9 -7 -16 -16 -16h-226c-9 0 -16 7 -16 16v41c0 9 7 16 16 16h48c9 0 15 7 15 16v309c0 9 -6 16 -15 16h-32c-9 0 -16 7 -16 16v41c0 9 7 16 16 16h119c9 0 16 -7 16 -16zM117 672h30c12 0 25 -10 34 -20
l68 -75c5 -6 7 -13 7 -18c0 -7 -7 -12 -14 -12h-40c-10 0 -13 2 -22 12l-33 34c-6 7 -10 9 -15 9s-9 -2 -15 -9l-33 -34c-9 -10 -12 -12 -22 -12h-40c-7 0 -14 5 -14 12c0 5 2 12 7 18l68 75c9 10 22 20 34 20z" />
    <glyph glyph-name="idieresis" unicode="&#xef;" horiz-adv-x="264"
d="M177 471v-382c0 -9 6 -16 15 -16h60c9 0 16 -7 16 -16v-41c0 -9 -7 -16 -16 -16h-226c-9 0 -16 7 -16 16v41c0 9 7 16 16 16h48c9 0 15 7 15 16v309c0 9 -6 16 -15 16h-32c-9 0 -16 7 -16 16v41c0 9 7 16 16 16h119c9 0 16 -7 16 -16zM21 635c0 26 21 47 47 47
s47 -21 47 -47s-21 -47 -47 -47s-47 21 -47 47zM149 635c0 26 22 47 47 47c26 0 47 -21 47 -47s-21 -47 -47 -47c-25 0 -47 21 -47 47z" />
    <glyph glyph-name="oacute" unicode="&#xf3;" horiz-adv-x="485"
d="M138 350v-213c0 -40 22 -74 105 -74c82 0 104 34 104 74v213c0 40 -22 74 -104 74c-83 0 -105 -34 -105 -74zM50 128v231c0 71 56 138 193 138c136 0 192 -67 192 -138v-231c0 -71 -56 -138 -192 -138c-137 0 -193 67 -193 138zM258 672h46c12 0 24 -4 24 -16
c0 -9 -8 -19 -15 -25l-80 -72c-10 -9 -18 -12 -28 -12h-34c-7 0 -14 5 -14 12c0 5 2 12 7 18l63 75c9 10 19 20 31 20z" />
    <glyph glyph-name="ograve" unicode="&#xf2;" horiz-adv-x="485"
d="M138 350v-213c0 -40 22 -74 105 -74c82 0 104 34 104 74v213c0 40 -22 74 -104 74c-83 0 -105 -34 -105 -74zM50 128v231c0 71 56 138 193 138c136 0 192 -67 192 -138v-231c0 -71 -56 -138 -192 -138c-137 0 -193 67 -193 138zM181 672h46c12 0 22 -10 31 -20l63 -75
c5 -6 7 -13 7 -18c0 -7 -7 -12 -14 -12h-34c-10 0 -18 3 -28 12l-80 72c-7 6 -15 16 -15 25c0 12 12 16 24 16z" />
    <glyph glyph-name="ocircumflex" unicode="&#xf4;" horiz-adv-x="485"
d="M138 350v-213c0 -40 22 -74 105 -74c82 0 104 34 104 74v213c0 40 -22 74 -104 74c-83 0 -105 -34 -105 -74zM50 128v231c0 71 56 138 193 138c136 0 192 -67 192 -138v-231c0 -71 -56 -138 -192 -138c-137 0 -193 67 -193 138zM227 672h30c12 0 25 -10 34 -20l68 -75
c5 -6 7 -13 7 -18c0 -7 -7 -12 -14 -12h-40c-10 0 -13 2 -22 12l-33 34c-6 7 -10 9 -15 9s-9 -2 -15 -9l-33 -34c-9 -10 -12 -12 -22 -12h-40c-7 0 -14 5 -14 12c0 5 2 12 7 18l68 75c9 10 22 20 34 20z" />
    <glyph glyph-name="odieresis" unicode="&#xf6;" horiz-adv-x="485"
d="M138 350v-213c0 -40 22 -74 105 -74c82 0 104 34 104 74v213c0 40 -22 74 -104 74c-83 0 -105 -34 -105 -74zM50 128v231c0 71 56 138 193 138c136 0 192 -67 192 -138v-231c0 -71 -56 -138 -192 -138c-137 0 -193 67 -193 138zM131 635c0 26 21 47 47 47s47 -21 47 -47
s-21 -47 -47 -47s-47 21 -47 47zM259 635c0 26 22 47 47 47c26 0 47 -21 47 -47s-21 -47 -47 -47c-25 0 -47 21 -47 47z" />
    <glyph glyph-name="uacute" unicode="&#xfa;" horiz-adv-x="483"
d="M340 16v40c0 3 -2 5 -5 5c-2 0 -4 -1 -5 -3c-17 -39 -45 -58 -109 -58h-34c-76 0 -127 49 -127 128v343c0 9 7 16 16 16h57c9 0 15 -7 15 -16v-344c0 -30 23 -54 53 -54h48c73 0 85 37 85 94v304c0 9 7 16 16 16h57c9 0 15 -7 15 -16v-455c0 -9 -7 -16 -16 -16h-51
c-9 0 -15 7 -15 16zM257 672h46c12 0 24 -4 24 -16c0 -9 -8 -19 -15 -25l-80 -72c-10 -9 -18 -12 -28 -12h-34c-7 0 -14 5 -14 12c0 5 2 12 7 18l63 75c9 10 19 20 31 20z" />
    <glyph glyph-name="ugrave" unicode="&#xf9;" horiz-adv-x="483"
d="M340 16v40c0 3 -2 5 -5 5c-2 0 -4 -1 -5 -3c-17 -39 -45 -58 -109 -58h-34c-76 0 -127 49 -127 128v343c0 9 7 16 16 16h57c9 0 15 -7 15 -16v-344c0 -30 23 -54 53 -54h48c73 0 85 37 85 94v304c0 9 7 16 16 16h57c9 0 15 -7 15 -16v-455c0 -9 -7 -16 -16 -16h-51
c-9 0 -15 7 -15 16zM180 672h46c12 0 22 -10 31 -20l63 -75c5 -6 7 -13 7 -18c0 -7 -7 -12 -14 -12h-34c-10 0 -18 3 -28 12l-80 72c-7 6 -15 16 -15 25c0 12 12 16 24 16z" />
    <glyph glyph-name="ucircumflex" unicode="&#xfb;" horiz-adv-x="483"
d="M340 16v40c0 3 -2 5 -5 5c-2 0 -4 -1 -5 -3c-17 -39 -45 -58 -109 -58h-34c-76 0 -127 49 -127 128v343c0 9 7 16 16 16h57c9 0 15 -7 15 -16v-344c0 -30 23 -54 53 -54h48c73 0 85 37 85 94v304c0 9 7 16 16 16h57c9 0 15 -7 15 -16v-455c0 -9 -7 -16 -16 -16h-51
c-9 0 -15 7 -15 16zM226 672h30c12 0 25 -10 34 -20l68 -75c5 -6 7 -13 7 -18c0 -7 -7 -12 -14 -12h-40c-10 0 -13 2 -22 12l-33 34c-6 7 -10 9 -15 9s-9 -2 -15 -9l-33 -34c-9 -10 -12 -12 -22 -12h-40c-7 0 -14 5 -14 12c0 5 2 12 7 18l68 75c9 10 22 20 34 20z" />
    <glyph glyph-name="udieresis" unicode="&#xfc;" horiz-adv-x="483"
d="M340 16v40c0 3 -2 5 -5 5c-2 0 -4 -1 -5 -3c-17 -39 -45 -58 -109 -58h-34c-76 0 -127 49 -127 128v343c0 9 7 16 16 16h57c9 0 15 -7 15 -16v-344c0 -30 23 -54 53 -54h48c73 0 85 37 85 94v304c0 9 7 16 16 16h57c9 0 15 -7 15 -16v-455c0 -9 -7 -16 -16 -16h-51
c-9 0 -15 7 -15 16zM130 635c0 26 21 47 47 47s47 -21 47 -47s-21 -47 -47 -47s-47 21 -47 47zM258 635c0 26 22 47 47 47c26 0 47 -21 47 -47s-21 -47 -47 -47c-25 0 -47 21 -47 47z" />
    <glyph glyph-name="radical" unicode="&#x221a;" horiz-adv-x="484"
d="M234 89l153 567c2 9 8 16 17 16h60c10 0 14 -6 14 -14c0 -5 -2 -10 -3 -16l-174 -622c-4 -13 -10 -20 -22 -20h-121c-12 0 -18 7 -22 20l-123 437c-1 6 -3 11 -3 16c0 8 4 14 14 14h63c9 0 15 -7 17 -16l99 -382c2 -9 6 -16 15 -16c10 0 14 7 16 16z" />
    <glyph glyph-name="integral" unicode="&#x222b;"
d="M195 -34v571c0 108 76 135 176 135h23c9 0 15 -6 15 -15v-42c0 -9 -6 -16 -15 -16h-26c-67 0 -85 -19 -85 -87v-571c0 -108 -76 -135 -176 -135h-23c-9 0 -15 6 -15 15v42c0 9 6 16 15 16h26c67 0 85 19 85 87z" />
    <glyph glyph-name="braceright" unicode="}" horiz-adv-x="298"
d="M161 535v-29c0 -99 6 -135 65 -135h6c9 0 16 -7 16 -16v-130c0 -9 -7 -16 -16 -16h-6c-59 0 -65 -36 -65 -135v-27c0 -131 -16 -187 -127 -187h-16c-9 0 -16 7 -16 16v41c0 9 7 16 16 16h16c39 0 45 26 45 125v27c0 120 31 166 103 186v38c-73 20 -103 65 -103 186v29
c0 99 -6 125 -45 125h-16c-9 0 -16 7 -16 16v41c0 9 7 16 16 16h16c111 0 127 -56 127 -187z" />
    <glyph glyph-name="braceleft" unicode="{" horiz-adv-x="298"
d="M137 506v29c0 131 16 187 127 187h16c9 0 16 -7 16 -16v-41c0 -9 -7 -16 -16 -16h-16c-39 0 -45 -26 -45 -125v-29c0 -121 -30 -166 -103 -186v-38c72 -20 103 -66 103 -186v-27c0 -99 6 -125 45 -125h16c9 0 16 -7 16 -16v-41c0 -9 -7 -16 -16 -16h-16
c-111 0 -127 56 -127 187v27c0 99 -6 135 -65 135h-6c-9 0 -16 7 -16 16v130c0 9 7 16 16 16h6c59 0 65 36 65 135z" />
    <glyph glyph-name="asciicircum" unicode="^" horiz-adv-x="288"
d="M120 672h49c12 0 19 -7 24 -20l68 -175c3 -7 4 -13 4 -18c0 -7 -4 -12 -11 -12h-36c-10 0 -18 3 -23 16l-36 94c-2 6 -10 9 -15 9s-13 -3 -15 -9l-35 -93c-5 -13 -14 -17 -24 -17h-36c-7 0 -11 5 -11 12c0 5 1 11 4 18l68 175c5 13 13 20 25 20z" />
    <glyph glyph-name="asciitilde" unicode="~"
d="M166 267c-27 0 -36 -11 -36 -33v-6c0 -9 -7 -16 -16 -16h-38c-9 0 -16 7 -16 16v16c0 71 34 97 85 97c46 0 154 -38 188 -38c27 0 37 11 37 33v6c0 9 7 16 16 16h38c9 0 16 -7 16 -16v-16c0 -71 -34 -97 -85 -97c-70 0 -122 38 -189 38z" />
    <glyph glyph-name="approxequal" unicode="&#x2248;"
d="M166 367c-27 0 -36 -11 -36 -33v-6c0 -9 -7 -16 -16 -16h-38c-9 0 -16 7 -16 16v16c0 71 34 97 85 97c46 0 154 -38 188 -38c27 0 37 11 37 33v6c0 9 7 16 16 16h38c9 0 16 -7 16 -16v-16c0 -71 -34 -97 -85 -97c-70 0 -122 38 -189 38zM166 167c-27 0 -36 -11 -36 -33
v-6c0 -9 -7 -16 -16 -16h-38c-9 0 -16 7 -16 16v16c0 71 34 97 85 97c46 0 154 -38 188 -38c27 0 37 11 37 33v6c0 9 7 16 16 16h38c9 0 16 -7 16 -16v-16c0 -71 -34 -97 -85 -97c-70 0 -122 38 -189 38z" />
    <glyph glyph-name="notequal" unicode="&#x2260;"
d="M424 149h-201l-56 -113c-3 -6 -7 -9 -12 -9c-3 0 -6 1 -9 3l-30 14c-6 3 -9 8 -9 13c0 2 1 5 2 7l42 85h-75c-9 0 -16 7 -16 16v41c0 9 7 16 16 16h111l62 127h-173c-9 0 -16 7 -16 16v41c0 9 7 16 16 16h209l58 116c3 7 8 11 14 11c2 0 5 -1 7 -2l30 -16
c6 -3 9 -8 9 -14c0 -2 -1 -5 -2 -7l-44 -88h67c9 0 16 -7 16 -16v-41c0 -9 -7 -16 -16 -16h-103l-62 -127h165c9 0 16 -7 16 -16v-41c0 -9 -7 -16 -16 -16z" />
    <glyph glyph-name="Delta" unicode="&#x394;" horiz-adv-x="528"
d="M241 583l-119 -494v-3c0 -8 7 -13 15 -13h257c8 0 15 5 15 13l-123 497c-2 9 -6 16 -15 16h-15c-9 0 -13 -7 -15 -16zM504 0h-480c-10 0 -14 6 -14 14c0 5 2 10 3 16l156 622c3 13 10 20 22 20h145c12 0 19 -7 22 -20l157 -622c1 -6 3 -11 3 -16c0 -8 -4 -14 -14 -14z
" />
    <glyph glyph-name="Delta" unicode="&#x2206;" horiz-adv-x="528"
d="M241 583l-119 -494v-3c0 -8 7 -13 15 -13h257c8 0 15 5 15 13l-123 497c-2 9 -6 16 -15 16h-15c-9 0 -13 -7 -15 -16zM504 0h-480c-10 0 -14 6 -14 14c0 5 2 10 3 16l156 622c3 13 10 20 22 20h145c12 0 19 -7 22 -20l157 -622c1 -6 3 -11 3 -16c0 -8 -4 -14 -14 -14z
" />
    <glyph glyph-name="oe" unicode="&#x153;" horiz-adv-x="759"
d="M428 199v-4c0 -73 50 -121 123 -121h128c9 0 16 -7 16 -16v-42c0 -9 -7 -16 -16 -16h-143c-55 0 -101 19 -133 51c-27 -36 -77 -61 -160 -61c-137 0 -193 67 -193 138v231c0 71 56 138 193 138c69 0 115 -18 144 -44c29 26 76 44 146 44c124 0 180 -67 180 -138v-129
c0 -9 -6 -16 -15 -16h-255c-9 0 -15 -6 -15 -15zM138 350v-213c0 -40 22 -74 105 -74c82 0 104 34 104 74v213c0 40 -22 74 -104 74c-83 0 -105 -34 -105 -74zM428 360v-62c0 -9 6 -16 15 -16h167c9 0 15 7 15 16v62c0 30 -22 64 -95 64c-80 0 -102 -34 -102 -64z" />
    <glyph glyph-name="zero.onum"
d="M187 487h126c98 0 147 -50 147 -148v-191c0 -98 -49 -148 -147 -148h-126c-98 0 -147 50 -147 148v191c0 98 49 148 147 148zM295 414h-90c-57 0 -77 -17 -77 -74v-193c0 -57 20 -74 77 -74h90c57 0 77 17 77 74v193c0 57 -20 74 -77 74z" />
    <glyph glyph-name="one.onum"
d="M233 89v286c0 5 -1 8 -3 8s-5 -3 -9 -8l-49 -63c-8 -11 -21 -20 -33 -20h-40c-9 0 -16 7 -16 16v41c0 9 7 16 16 16h10c15 0 23 2 33 16l64 90c10 14 19 16 33 16h66c9 0 16 -7 16 -16v-382c0 -9 6 -16 15 -16h96c9 0 16 -7 16 -16v-41c0 -9 -7 -16 -16 -16h-336
c-9 0 -16 7 -16 16v41c0 9 7 16 16 16h122c9 0 15 7 15 16z" />
    <glyph glyph-name="two.onum"
d="M47 16v68c0 45 17 83 64 106l177 86c45 22 58 35 58 71v13c0 39 -25 54 -73 54h-189c-9 0 -16 7 -16 16v41c0 9 7 16 16 16h207c98 0 147 -38 147 -128v-16c0 -78 -30 -94 -133 -143l-137 -65c-25 -12 -29 -24 -29 -38v-7c0 -13 6 -17 15 -17h199c9 0 16 6 16 15v32
c0 9 7 16 16 16h41c9 0 16 -7 16 -16v-104c0 -9 -7 -16 -16 -16h-364c-9 0 -15 7 -15 16z" />
    <glyph glyph-name="three.onum"
d="M242 214h33c119 0 177 -75 177 -150c0 -159 -154 -259 -366 -259c-9 0 -16 7 -16 16v44c0 9 7 16 16 16c174 0 274 70 274 174c0 59 -40 81 -102 81h-110c-9 0 -15 7 -15 16v43c0 10 7 18 15 26l169 169c5 5 9 10 9 16c0 7 -9 8 -16 8h-175c-9 0 -16 -6 -16 -15v-32
c0 -9 -7 -16 -16 -16h-41c-9 0 -16 7 -16 16v104c0 9 7 16 16 16h354c9 0 15 -7 15 -16v-57c0 -9 -2 -19 -9 -26z" />
    <glyph glyph-name="four.onum"
d="M430 311v-480c0 -9 -7 -16 -16 -16h-57c-9 0 -15 7 -15 16v178c0 9 -6 16 -15 16h-258c-9 0 -15 7 -15 16v57c0 9 1 17 3 26l83 377c2 9 6 16 15 16h63c7 0 11 -5 11 -12s-1 -14 -3 -22l-82 -369c0 -2 -1 -3 -1 -5c0 -9 8 -11 16 -11h168c9 0 15 7 15 16v197
c0 9 6 16 15 16h57c9 0 16 -7 16 -16z" />
    <glyph glyph-name="five.onum"
d="M86 -119c174 0 274 70 274 174c0 59 -40 81 -102 81h-170c-9 0 -15 7 -15 16v319c0 9 6 16 15 16h334c9 0 16 -7 16 -16v-41c0 -9 -7 -16 -16 -16h-252c-9 0 -15 -7 -15 -16v-184h120c119 0 177 -75 177 -150c0 -159 -154 -259 -366 -259c-9 0 -16 7 -16 16v44
c0 9 7 16 16 16z" />
    <glyph glyph-name="six.onum"
d="M366 598c-145 0 -220 -58 -234 -169h182c98 0 148 -51 148 -149v-132c0 -98 -49 -148 -147 -148h-126c-98 0 -147 50 -147 148v238c0 171 106 286 307 286h17c9 0 16 -7 16 -16v-42c0 -9 -7 -16 -16 -16zM207 73h90c51 0 77 23 77 74v133c0 51 -26 74 -77 74h-167v-207
c0 -51 26 -74 77 -74z" />
    <glyph glyph-name="seven.onum"
d="M341 414h-206c-9 0 -16 -6 -16 -15v-32c0 -9 -7 -16 -16 -16h-41c-9 0 -16 7 -16 16v104c0 9 7 16 16 16h374c9 0 15 -7 15 -16v-52c0 -9 -5 -22 -9 -31l-200 -439c-9 -21 -14 -55 -14 -77v-41c0 -9 -7 -16 -16 -16h-61c-9 0 -15 7 -15 16v58c0 19 6 46 15 66l205 443
c1 2 1 4 1 6c0 7 -9 10 -16 10z" />
    <glyph glyph-name="eight.onum"
d="M312 0h-126c-98 0 -147 50 -147 148v86c0 78 37 125 89 142c-32 17 -49 50 -49 81v87c0 71 56 128 127 128h86c71 0 127 -57 127 -128v-87c0 -31 -17 -64 -49 -81c52 -17 89 -63 89 -142v-86c0 -98 -49 -148 -147 -148zM204 73h90c48 0 77 26 77 74v98
c0 48 -29 74 -77 74h-90c-48 0 -77 -26 -77 -74v-98c0 -48 29 -74 77 -74zM224 392h50c30 0 57 24 57 54v99c0 30 -27 54 -57 54h-50c-30 0 -57 -24 -57 -54v-99c0 -30 27 -54 57 -54z" />
    <glyph glyph-name="nine.onum"
d="M273 44h-83c-98 0 -147 50 -147 148v147c0 91 56 148 147 148h116c92 0 147 -56 147 -148v-189c0 -91 -20 -141 -81 -217l-85 -106c-6 -7 -11 -12 -23 -12h-74c-6 0 -9 5 -9 10c0 3 1 7 3 9l89 109c56 69 92 111 92 201v196c0 45 -29 74 -77 74h-80
c-46 0 -77 -28 -77 -74v-149c0 -57 20 -75 77 -75h65c9 0 16 -7 16 -16v-40c0 -9 -7 -16 -16 -16z" />
    <glyph glyph-name="Lslash" unicode="&#x141;" horiz-adv-x="454"
d="M281 339l-120 -42v-208c0 -9 6 -16 15 -16h252c9 0 16 -7 16 -16v-41c0 -9 -7 -16 -16 -16h-344c-9 0 -15 7 -15 16v249l-40 -14c-3 -1 -6 -2 -9 -2c-8 0 -13 7 -13 16v37c0 9 8 17 16 20l46 16v318c0 9 6 16 15 16h61c9 0 16 -7 16 -16v-286l108 38c6 2 10 3 15 3
c8 0 13 -4 13 -15v-38c0 -9 -8 -16 -16 -19z" />
    <glyph glyph-name="OE" unicode="&#x152;" horiz-adv-x="819"
d="M186 672h595c9 0 16 -7 16 -16v-41c0 -9 -7 -16 -16 -16h-262c-9 0 -15 -7 -15 -16v-187c1 -8 6 -14 15 -14h173c9 0 16 -7 16 -16v-41c0 -9 -7 -16 -16 -16h-173c-9 0 -14 -6 -15 -14v-206c0 -9 6 -16 15 -16h262c9 0 16 -7 16 -16v-41c0 -9 -7 -16 -16 -16h-595
c-71 0 -127 57 -127 128v416c0 71 56 128 127 128zM412 599h-208c-30 0 -53 -24 -53 -54v-418c0 -30 23 -54 53 -54h208v526z" />
    <glyph glyph-name="Eth" unicode="&#xd0;" horiz-adv-x="578"
d="M519 445v-218c0 -131 -96 -227 -247 -227h-226c-9 0 -16 7 -16 16v41c0 9 7 16 16 16h32c9 0 15 7 15 16v219h-41c-9 0 -16 7 -16 16v41c0 9 7 16 16 16h41v202c0 9 -6 16 -15 16h-32c-9 0 -16 7 -16 16v41c0 9 7 16 16 16h226c151 0 247 -96 247 -227zM300 308h-115
v-219c0 -9 6 -16 15 -16h72c99 0 155 66 155 165v196c0 99 -56 165 -155 165h-72c-9 0 -15 -7 -15 -16v-202h115c9 0 16 -7 16 -16v-41c0 -9 -7 -16 -16 -16z" />
    <glyph glyph-name="Thorn" unicode="&#xde;" horiz-adv-x="514"
d="M69 16v640c0 9 6 16 15 16h61c9 0 16 -7 16 -16v-78c0 -9 6 -16 15 -16h104c141 0 206 -65 206 -206s-65 -206 -206 -206h-65c-9 0 -16 7 -16 16v41c0 9 7 16 16 16h44c100 0 133 32 133 132s-33 134 -133 134h-83c-9 0 -15 -7 -15 -16v-457c0 -9 -7 -16 -16 -16h-61
c-9 0 -15 7 -15 16z" />
    <glyph glyph-name="Aacute" unicode="&#xc1;" horiz-adv-x="568"
d="M377 298l-71 285c-2 9 -6 16 -15 16h-15c-9 0 -13 -7 -15 -16l-69 -285c-1 -2 -1 -4 -1 -6c0 -7 5 -10 16 -10h155c9 0 16 3 16 11c0 1 -1 3 -1 5zM447 16l-44 177c-2 9 -6 16 -15 16h-206c-9 0 -14 -7 -16 -16l-42 -177c-2 -9 -8 -16 -17 -16h-63c-10 0 -14 6 -14 14
c0 5 2 10 3 16l158 622c3 13 10 20 22 20h141c12 0 19 -7 22 -20l159 -622c1 -6 3 -11 3 -16c0 -8 -4 -14 -14 -14h-60c-9 0 -15 7 -17 16zM349 857h46c12 0 24 -4 24 -16c0 -9 -8 -19 -15 -25l-80 -72c-10 -9 -18 -12 -28 -12h-34c-7 0 -14 5 -14 12c0 5 2 12 7 18l63 75
c9 10 19 20 31 20z" />
    <glyph glyph-name="Acircumflex" unicode="&#xc2;" horiz-adv-x="568"
d="M377 298l-71 285c-2 9 -6 16 -15 16h-15c-9 0 -13 -7 -15 -16l-69 -285c-1 -2 -1 -4 -1 -6c0 -7 5 -10 16 -10h155c9 0 16 3 16 11c0 1 -1 3 -1 5zM447 16l-44 177c-2 9 -6 16 -15 16h-206c-9 0 -14 -7 -16 -16l-42 -177c-2 -9 -8 -16 -17 -16h-63c-10 0 -14 6 -14 14
c0 5 2 10 3 16l158 622c3 13 10 20 22 20h141c12 0 19 -7 22 -20l159 -622c1 -6 3 -11 3 -16c0 -8 -4 -14 -14 -14h-60c-9 0 -15 7 -17 16zM269 857h30c12 0 25 -10 34 -20l68 -75c5 -6 7 -13 7 -18c0 -7 -7 -12 -14 -12h-40c-10 0 -13 2 -22 12l-33 34c-6 7 -10 9 -15 9
s-9 -2 -15 -9l-33 -34c-9 -10 -12 -12 -22 -12h-40c-7 0 -14 5 -14 12c0 5 2 12 7 18l68 75c9 10 22 20 34 20z" />
    <glyph glyph-name="Agrave" unicode="&#xc0;" horiz-adv-x="568"
d="M377 298l-71 285c-2 9 -6 16 -15 16h-15c-9 0 -13 -7 -15 -16l-69 -285c-1 -2 -1 -4 -1 -6c0 -7 5 -10 16 -10h155c9 0 16 3 16 11c0 1 -1 3 -1 5zM447 16l-44 177c-2 9 -6 16 -15 16h-206c-9 0 -14 -7 -16 -16l-42 -177c-2 -9 -8 -16 -17 -16h-63c-10 0 -14 6 -14 14
c0 5 2 10 3 16l158 622c3 13 10 20 22 20h141c12 0 19 -7 22 -20l159 -622c1 -6 3 -11 3 -16c0 -8 -4 -14 -14 -14h-60c-9 0 -15 7 -17 16zM162 857h46c12 0 22 -10 31 -20l63 -75c5 -6 7 -13 7 -18c0 -7 -7 -12 -14 -12h-34c-10 0 -18 3 -28 12l-80 72c-7 6 -15 16 -15 25
c0 12 12 16 24 16z" />
    <glyph glyph-name="Ecircumflex" unicode="&#xca;" horiz-adv-x="476"
d="M69 16v640c0 9 6 16 15 16h354c9 0 16 -7 16 -16v-41c0 -9 -7 -16 -16 -16h-262c-9 0 -15 -7 -15 -16v-185c0 -9 6 -16 15 -16h173c9 0 16 -7 16 -16v-41c0 -9 -7 -16 -16 -16h-173c-9 0 -15 -7 -15 -16v-204c0 -9 6 -16 15 -16h262c9 0 16 -7 16 -16v-41
c0 -9 -7 -16 -16 -16h-354c-9 0 -15 7 -15 16zM223 857h30c12 0 25 -10 34 -20l68 -75c5 -6 7 -13 7 -18c0 -7 -7 -12 -14 -12h-40c-10 0 -13 2 -22 12l-33 34c-6 7 -10 9 -15 9s-9 -2 -15 -9l-33 -34c-9 -10 -12 -12 -22 -12h-40c-7 0 -14 5 -14 12c0 5 2 12 7 18l68 75
c9 10 22 20 34 20z" />
    <glyph glyph-name="Edieresis" unicode="&#xcb;" horiz-adv-x="476"
d="M69 16v640c0 9 6 16 15 16h354c9 0 16 -7 16 -16v-41c0 -9 -7 -16 -16 -16h-262c-9 0 -15 -7 -15 -16v-185c0 -9 6 -16 15 -16h173c9 0 16 -7 16 -16v-41c0 -9 -7 -16 -16 -16h-173c-9 0 -15 -7 -15 -16v-204c0 -9 6 -16 15 -16h262c9 0 16 -7 16 -16v-41
c0 -9 -7 -16 -16 -16h-354c-9 0 -15 7 -15 16zM127 820c0 26 21 47 47 47s47 -21 47 -47s-21 -47 -47 -47s-47 21 -47 47zM255 820c0 26 22 47 47 47c26 0 47 -21 47 -47s-21 -47 -47 -47c-25 0 -47 21 -47 47z" />
    <glyph glyph-name="Iacute" unicode="&#xcd;" horiz-adv-x="408"
d="M173 89v494c0 9 -6 16 -15 16h-62c-9 0 -16 7 -16 16v41c0 9 7 16 16 16h226c9 0 16 -7 16 -16v-41c0 -9 -7 -16 -16 -16h-42c-9 0 -15 -7 -15 -16v-494c0 -9 6 -16 15 -16h92c9 0 16 -7 16 -16v-41c0 -9 -7 -16 -16 -16h-336c-9 0 -16 7 -16 16v41c0 9 7 16 16 16h122
c9 0 15 7 15 16zM219 857h46c12 0 24 -4 24 -16c0 -9 -8 -19 -15 -25l-80 -72c-10 -9 -18 -12 -28 -12h-34c-7 0 -14 5 -14 12c0 5 2 12 7 18l63 75c9 10 19 20 31 20z" />
    <glyph glyph-name="Icircumflex" unicode="&#xce;" horiz-adv-x="408"
d="M173 89v494c0 9 -6 16 -15 16h-62c-9 0 -16 7 -16 16v41c0 9 7 16 16 16h226c9 0 16 -7 16 -16v-41c0 -9 -7 -16 -16 -16h-42c-9 0 -15 -7 -15 -16v-494c0 -9 6 -16 15 -16h92c9 0 16 -7 16 -16v-41c0 -9 -7 -16 -16 -16h-336c-9 0 -16 7 -16 16v41c0 9 7 16 16 16h122
c9 0 15 7 15 16zM189 857h30c12 0 25 -10 34 -20l68 -75c5 -6 7 -13 7 -18c0 -7 -7 -12 -14 -12h-40c-10 0 -13 2 -22 12l-33 34c-6 7 -10 9 -15 9s-9 -2 -15 -9l-33 -34c-9 -10 -12 -12 -22 -12h-40c-7 0 -14 5 -14 12c0 5 2 12 7 18l68 75c9 10 22 20 34 20z" />
    <glyph glyph-name="Idieresis" unicode="&#xcf;" horiz-adv-x="408"
d="M173 89v494c0 9 -6 16 -15 16h-62c-9 0 -16 7 -16 16v41c0 9 7 16 16 16h226c9 0 16 -7 16 -16v-41c0 -9 -7 -16 -16 -16h-42c-9 0 -15 -7 -15 -16v-494c0 -9 6 -16 15 -16h92c9 0 16 -7 16 -16v-41c0 -9 -7 -16 -16 -16h-336c-9 0 -16 7 -16 16v41c0 9 7 16 16 16h122
c9 0 15 7 15 16zM93 820c0 26 21 47 47 47s47 -21 47 -47s-21 -47 -47 -47s-47 21 -47 47zM221 820c0 26 22 47 47 47c26 0 47 -21 47 -47s-21 -47 -47 -47c-25 0 -47 21 -47 47z" />
    <glyph glyph-name="Igrave" unicode="&#xcc;" horiz-adv-x="408"
d="M173 89v494c0 9 -6 16 -15 16h-62c-9 0 -16 7 -16 16v41c0 9 7 16 16 16h226c9 0 16 -7 16 -16v-41c0 -9 -7 -16 -16 -16h-42c-9 0 -15 -7 -15 -16v-494c0 -9 6 -16 15 -16h92c9 0 16 -7 16 -16v-41c0 -9 -7 -16 -16 -16h-336c-9 0 -16 7 -16 16v41c0 9 7 16 16 16h122
c9 0 15 7 15 16zM142 857h46c12 0 22 -10 31 -20l63 -75c5 -6 7 -13 7 -18c0 -7 -7 -12 -14 -12h-34c-10 0 -18 3 -28 12l-80 72c-7 6 -15 16 -15 25c0 12 12 16 24 16z" />
    <glyph glyph-name="Oacute" unicode="&#xd3;" horiz-adv-x="563"
d="M186 672h191c71 0 127 -57 127 -128v-416c0 -71 -56 -128 -127 -128h-191c-71 0 -127 57 -127 128v416c0 71 56 128 127 128zM359 599h-155c-30 0 -53 -24 -53 -54v-418c0 -30 23 -54 53 -54h155c30 0 53 24 53 54v418c0 30 -23 54 -53 54zM337 857h46c12 0 24 -4 24 -16
c0 -9 -8 -19 -15 -25l-80 -72c-10 -9 -18 -12 -28 -12h-34c-7 0 -14 5 -14 12c0 5 2 12 7 18l63 75c9 10 19 20 31 20z" />
    <glyph glyph-name="Ocircumflex" unicode="&#xd4;" horiz-adv-x="563"
d="M186 672h191c71 0 127 -57 127 -128v-416c0 -71 -56 -128 -127 -128h-191c-71 0 -127 57 -127 128v416c0 71 56 128 127 128zM359 599h-155c-30 0 -53 -24 -53 -54v-418c0 -30 23 -54 53 -54h155c30 0 53 24 53 54v418c0 30 -23 54 -53 54zM266 857h30
c12 0 25 -10 34 -20l68 -75c5 -6 7 -13 7 -18c0 -7 -7 -12 -14 -12h-40c-10 0 -13 2 -22 12l-33 34c-6 7 -10 9 -15 9s-9 -2 -15 -9l-33 -34c-9 -10 -12 -12 -22 -12h-40c-7 0 -14 5 -14 12c0 5 2 12 7 18l68 75c9 10 22 20 34 20z" />
    <glyph glyph-name="Ograve" unicode="&#xd2;" horiz-adv-x="563"
d="M186 672h191c71 0 127 -57 127 -128v-416c0 -71 -56 -128 -127 -128h-191c-71 0 -127 57 -127 128v416c0 71 56 128 127 128zM359 599h-155c-30 0 -53 -24 -53 -54v-418c0 -30 23 -54 53 -54h155c30 0 53 24 53 54v418c0 30 -23 54 -53 54zM170 857h46
c12 0 22 -10 31 -20l63 -75c5 -6 7 -13 7 -18c0 -7 -7 -12 -14 -12h-34c-10 0 -18 3 -28 12l-80 72c-7 6 -15 16 -15 25c0 12 12 16 24 16z" />
    <glyph glyph-name="Scaron" unicode="&#x160;" horiz-adv-x="466"
d="M44 73h245c30 0 53 24 53 54v78c0 30 -12 44 -53 64l-124 61c-80 39 -127 62 -127 143v71c0 71 56 128 127 128h222c9 0 16 -7 16 -16v-41c0 -9 -7 -16 -16 -16h-204c-30 0 -53 -24 -53 -54v-68c0 -32 21 -48 53 -64l124 -61c90 -44 127 -68 127 -150v-74
c0 -71 -56 -128 -127 -128h-263c-9 0 -16 7 -16 16v41c0 9 7 16 16 16zM251 732h-36c-12 0 -23 9 -31 20l-68 85c-5 6 -7 13 -7 18c0 7 7 12 14 12h40c10 0 13 -2 22 -12l33 -34c6 -7 10 -9 15 -9s9 2 15 9l33 34c9 10 12 12 22 12h40c7 0 14 -5 14 -12c0 -5 -2 -12 -7 -18
l-68 -85c-8 -11 -19 -20 -31 -20z" />
    <glyph glyph-name="Uacute" unicode="&#xda;" horiz-adv-x="557"
d="M361 0h-88c-114 0 -204 92 -204 206v450c0 9 6 16 15 16h61c9 0 16 -7 16 -16v-449c0 -73 60 -134 133 -134h49c30 0 53 24 53 54v529c0 9 7 16 16 16h61c9 0 15 -7 15 -16v-528c0 -71 -56 -128 -127 -128zM344 857h46c12 0 24 -4 24 -16c0 -9 -8 -19 -15 -25l-80 -72
c-10 -9 -18 -12 -28 -12h-34c-7 0 -14 5 -14 12c0 5 2 12 7 18l63 75c9 10 19 20 31 20z" />
    <glyph glyph-name="Ucircumflex" unicode="&#xdb;" horiz-adv-x="557"
d="M361 0h-88c-114 0 -204 92 -204 206v450c0 9 6 16 15 16h61c9 0 16 -7 16 -16v-449c0 -73 60 -134 133 -134h49c30 0 53 24 53 54v529c0 9 7 16 16 16h61c9 0 15 -7 15 -16v-528c0 -71 -56 -128 -127 -128zM263 857h30c12 0 25 -10 34 -20l68 -75c5 -6 7 -13 7 -18
c0 -7 -7 -12 -14 -12h-40c-10 0 -13 2 -22 12l-33 34c-6 7 -10 9 -15 9s-9 -2 -15 -9l-33 -34c-9 -10 -12 -12 -22 -12h-40c-7 0 -14 5 -14 12c0 5 2 12 7 18l68 75c9 10 22 20 34 20z" />
    <glyph glyph-name="Ugrave" unicode="&#xd9;" horiz-adv-x="557"
d="M361 0h-88c-114 0 -204 92 -204 206v450c0 9 6 16 15 16h61c9 0 16 -7 16 -16v-449c0 -73 60 -134 133 -134h49c30 0 53 24 53 54v529c0 9 7 16 16 16h61c9 0 15 -7 15 -16v-528c0 -71 -56 -128 -127 -128zM177 857h46c12 0 22 -10 31 -20l63 -75c5 -6 7 -13 7 -18
c0 -7 -7 -12 -14 -12h-34c-10 0 -18 3 -28 12l-80 72c-7 6 -15 16 -15 25c0 12 12 16 24 16z" />
    <glyph glyph-name="Yacute" unicode="&#xdd;" horiz-adv-x="536"
d="M291 407l140 249c7 13 11 16 23 16h54c11 0 17 -4 17 -12c0 -5 -2 -11 -6 -18l-196 -342c-7 -12 -10 -25 -10 -38v-246c0 -9 -7 -16 -16 -16h-61c-9 0 -15 7 -15 16v245c0 14 -3 29 -10 40l-194 341c-4 7 -6 13 -6 18c0 8 6 12 17 12h57c12 0 16 -3 23 -16l138 -249
c4 -8 15 -27 22 -27c9 0 18 19 23 27zM283 857h46c12 0 24 -4 24 -16c0 -9 -8 -19 -15 -25l-80 -72c-10 -9 -18 -12 -28 -12h-34c-7 0 -14 5 -14 12c0 5 2 12 7 18l63 75c9 10 19 20 31 20z" />
    <glyph glyph-name="Ydieresis" unicode="&#x178;" horiz-adv-x="536"
d="M291 407l140 249c7 13 11 16 23 16h54c11 0 17 -4 17 -12c0 -5 -2 -11 -6 -18l-196 -342c-7 -12 -10 -25 -10 -38v-246c0 -9 -7 -16 -16 -16h-61c-9 0 -15 7 -15 16v245c0 14 -3 29 -10 40l-194 341c-4 7 -6 13 -6 18c0 8 6 12 17 12h57c12 0 16 -3 23 -16l138 -249
c4 -8 15 -27 22 -27c9 0 18 19 23 27zM157 820c0 26 21 47 47 47s47 -21 47 -47s-21 -47 -47 -47s-47 21 -47 47zM285 820c0 26 22 47 47 47c26 0 47 -21 47 -47s-21 -47 -47 -47c-25 0 -47 21 -47 47z" />
    <glyph glyph-name="Zcaron" unicode="&#x17d;" horiz-adv-x="444"
d="M298 599h-191c-9 0 -16 -6 -16 -15v-32c0 -9 -7 -16 -16 -16h-41c-9 0 -16 7 -16 16v104c0 9 7 16 16 16h354c9 0 15 -7 15 -16v-58c0 -19 -4 -27 -15 -46l-272 -463c-1 -2 -2 -5 -2 -8c0 -6 10 -8 17 -8h206c9 0 16 6 16 15v32c0 9 7 16 16 16h41c9 0 16 -7 16 -16v-104
c0 -9 -7 -16 -16 -16h-377c-9 0 -15 7 -15 16v57c0 9 4 18 9 26l282 480c2 4 3 7 3 10c0 7 -7 10 -14 10zM240 732h-36c-12 0 -23 9 -31 20l-68 85c-5 6 -7 13 -7 18c0 7 7 12 14 12h40c10 0 13 -2 22 -12l33 -34c6 -7 10 -9 15 -9s9 2 15 9l33 34c9 10 12 12 22 12h40
c7 0 14 -5 14 -12c0 -5 -2 -12 -7 -18l-68 -85c-8 -11 -19 -20 -31 -20z" />
    <glyph glyph-name="partialdiff" unicode="&#x2202;" horiz-adv-x="485"
d="M50 128v231c0 71 56 138 193 138c22 0 47 -3 65 -7l-131 139c-13 14 -23 26 -23 32c0 9 6 11 15 11h64c12 0 20 -5 26 -12l73 -79c78 -84 103 -130 103 -280v-173c0 -71 -56 -138 -192 -138c-137 0 -193 67 -193 138zM138 350v-213c0 -40 22 -74 105 -74
c82 0 104 34 104 74v213c0 40 -22 74 -104 74c-83 0 -105 -34 -105 -74z" />
    <glyph glyph-name="eth" unicode="&#xf0;" horiz-adv-x="485"
d="M351 611l-32 -16l13 -14c78 -84 103 -130 103 -280v-173c0 -71 -56 -138 -192 -138c-137 0 -193 67 -193 138v231c0 71 56 138 193 138c22 0 47 -3 65 -7l-65 68l-47 -23c-8 -4 -17 0 -21 8l-12 26c-4 8 -1 17 7 21l30 14l-23 25c-13 14 -23 26 -23 32c0 9 6 11 15 11h64
c12 0 20 -5 26 -12l17 -18l49 24c8 3 17 0 21 -8l12 -26c4 -8 1 -17 -7 -21zM138 350v-213c0 -40 22 -74 105 -74c82 0 104 34 104 74v213c0 40 -22 74 -104 74c-83 0 -105 -34 -105 -74z" />
    <glyph glyph-name="ydieresis" unicode="&#xff;" horiz-adv-x="436"
d="M86 -121h6c53 0 91 14 107 76l12 45h-53c-12 0 -19 7 -22 20l-121 437c-1 6 -3 11 -3 16c0 8 4 14 14 14h61c9 0 15 -7 17 -16l97 -382c2 -9 6 -16 15 -16h5c9 0 13 7 15 16l99 382c2 9 8 16 17 16h58c10 0 14 -6 14 -14c0 -5 -2 -10 -3 -16l-137 -495
c-31 -113 -73 -156 -174 -156h-24c-9 0 -16 7 -16 16v41c0 9 7 16 16 16zM107 635c0 26 21 47 47 47s47 -21 47 -47s-21 -47 -47 -47s-47 21 -47 47zM235 635c0 26 22 47 47 47c26 0 47 -21 47 -47s-21 -47 -47 -47c-25 0 -47 21 -47 47z" />
    <glyph glyph-name="Euro" unicode="&#x20ac;"
d="M384 219h-182v-72c0 -57 16 -74 73 -74h175c9 0 16 -7 16 -16v-41c0 -9 -7 -16 -16 -16h-193c-98 0 -147 50 -147 148v71h-54c-9 0 -16 7 -16 16v41c0 9 7 16 16 16h54v87h-54c-9 0 -16 7 -16 16v41c0 9 7 16 16 16h54v72c0 98 49 148 147 148h183c9 0 16 -7 16 -16v-41
c0 -9 -7 -16 -16 -16h-165c-57 0 -73 -17 -73 -74v-73h202c9 0 16 -7 16 -16v-41c0 -9 -7 -16 -16 -16h-202v-87h182c9 0 16 -7 16 -16v-41c0 -9 -7 -16 -16 -16z" />
    <glyph glyph-name="tilde" unicode="&#x2dc;" horiz-adv-x="350"
d="M106 598c-7 0 -16 -7 -16 -29v-6c0 -9 -7 -16 -16 -16h-38c-9 0 -16 7 -16 16v16c0 57 37 93 85 93c46 0 94 -51 128 -51c17 0 27 7 27 29v6c0 9 7 16 16 16h38c9 0 16 -7 16 -16v-16c0 -60 -39 -93 -85 -93c-70 0 -112 51 -139 51z" />
    <glyph glyph-name="thorn" unicode="&#xfe;" horiz-adv-x="495"
d="M60 -169v825c0 9 6 16 15 16h61c9 0 16 -7 16 -16v-153c0 -9 6 -16 15 -16h151c71 0 127 -57 127 -128v-231c0 -71 -56 -128 -127 -128h-108c-9 0 -16 7 -16 16v41c0 9 7 16 16 16h94c30 0 53 24 53 54v233c0 30 -23 54 -53 54h-141c-9 0 -15 -7 -15 -16v-567
c0 -9 -6 -16 -15 -16h-57c-9 0 -16 7 -16 16z" />
    <glyph glyph-name="otilde" unicode="&#xf5;" horiz-adv-x="485"
d="M138 350v-213c0 -40 22 -74 105 -74c82 0 104 34 104 74v213c0 40 -22 74 -104 74c-83 0 -105 -34 -105 -74zM50 128v231c0 71 56 138 193 138c136 0 192 -67 192 -138v-231c0 -71 -56 -138 -192 -138c-137 0 -193 67 -193 138zM173 598c-7 0 -16 -7 -16 -29v-6
c0 -9 -7 -16 -16 -16h-38c-9 0 -16 7 -16 16v16c0 57 37 93 85 93c46 0 94 -51 128 -51c17 0 27 7 27 29v6c0 9 7 16 16 16h38c9 0 16 -7 16 -16v-16c0 -60 -39 -93 -85 -93c-70 0 -112 51 -139 51z" />
    <glyph glyph-name="ntilde" unicode="&#xf1;" horiz-adv-x="489"
d="M60 16v455c0 9 7 16 16 16h51c9 0 15 -7 15 -16v-40c0 -3 2 -5 5 -5c2 0 4 1 5 3c17 39 68 68 132 68c98 0 145 -67 145 -138v-343c0 -9 -7 -16 -16 -16h-57c-9 0 -15 7 -15 16v344c0 35 -31 64 -82 64c-98 0 -111 -47 -111 -104v-304c0 -9 -7 -16 -16 -16h-57
c-9 0 -15 7 -15 16zM175 598c-7 0 -16 -7 -16 -29v-6c0 -9 -7 -16 -16 -16h-38c-9 0 -16 7 -16 16v16c0 57 37 93 85 93c46 0 94 -51 128 -51c17 0 27 7 27 29v6c0 9 7 16 16 16h38c9 0 16 -7 16 -16v-16c0 -60 -39 -93 -85 -93c-70 0 -112 51 -139 51z" />
    <glyph glyph-name="atilde" unicode="&#xe3;" horiz-adv-x="453"
d="M172 73h39c73 0 94 37 94 94v72l-133 -30c-35 -8 -53 -32 -53 -63v-19c0 -30 23 -54 53 -54zM393 355v-256c0 -17 8 -26 23 -26h4c9 0 16 -7 16 -16v-41c0 -9 -7 -16 -16 -16h-28c-42 0 -66 22 -73 56c-1 3 -3 5 -5 5s-4 -1 -5 -3c-17 -39 -45 -58 -109 -58h-47
c-71 0 -122 51 -122 122v28c0 71 57 109 127 124l147 31v44c0 53 -52 75 -103 75c-24 0 -62 -4 -90 -7c-23 -3 -37 -6 -42 -6c-7 0 -10 3 -10 11v47c0 11 1 14 10 16c38 8 99 12 129 12c110 0 194 -35 194 -142zM157 598c-7 0 -16 -7 -16 -29v-6c0 -9 -7 -16 -16 -16h-38
c-9 0 -16 7 -16 16v16c0 57 37 93 85 93c46 0 94 -51 128 -51c17 0 27 7 27 29v6c0 9 7 16 16 16h38c9 0 16 -7 16 -16v-16c0 -60 -39 -93 -85 -93c-70 0 -112 51 -139 51z" />
    <glyph glyph-name="Ntilde" unicode="&#xd1;" horiz-adv-x="580"
d="M511 656v-640c0 -9 -7 -16 -16 -16h-83c-9 0 -14 8 -18 16l-240 545v-545c0 -9 -7 -16 -16 -16h-54c-9 0 -15 7 -15 16v567c0 12 -3 16 -15 16h-32c-9 0 -16 7 -16 16v41c0 9 7 16 16 16h148c12 0 20 -8 26 -20l230 -516v520c0 9 6 16 15 16h54c9 0 16 -7 16 -16z
M221 783c-7 0 -16 -7 -16 -29v-6c0 -9 -7 -16 -16 -16h-38c-9 0 -16 7 -16 16v16c0 57 37 93 85 93c46 0 94 -51 128 -51c17 0 27 7 27 29v6c0 9 7 16 16 16h38c9 0 16 -7 16 -16v-16c0 -60 -39 -93 -85 -93c-70 0 -112 51 -139 51z" />
    <glyph glyph-name="Atilde" unicode="&#xc3;" horiz-adv-x="568"
d="M377 298l-71 285c-2 9 -6 16 -15 16h-15c-9 0 -13 -7 -15 -16l-69 -285c-1 -2 -1 -4 -1 -6c0 -7 5 -10 16 -10h155c9 0 16 3 16 11c0 1 -1 3 -1 5zM447 16l-44 177c-2 9 -6 16 -15 16h-206c-9 0 -14 -7 -16 -16l-42 -177c-2 -9 -8 -16 -17 -16h-63c-10 0 -14 6 -14 14
c0 5 2 10 3 16l158 622c3 13 10 20 22 20h141c12 0 19 -7 22 -20l159 -622c1 -6 3 -11 3 -16c0 -8 -4 -14 -14 -14h-60c-9 0 -15 7 -17 16zM215 783c-7 0 -16 -7 -16 -29v-6c0 -9 -7 -16 -16 -16h-38c-9 0 -16 7 -16 16v16c0 57 37 93 85 93c46 0 94 -51 128 -51
c17 0 27 7 27 29v6c0 9 7 16 16 16h38c9 0 16 -7 16 -16v-16c0 -60 -39 -93 -85 -93c-70 0 -112 51 -139 51z" />
    <glyph glyph-name="Otilde" unicode="&#xd5;" horiz-adv-x="563"
d="M186 672h191c71 0 127 -57 127 -128v-416c0 -71 -56 -128 -127 -128h-191c-71 0 -127 57 -127 128v416c0 71 56 128 127 128zM359 599h-155c-30 0 -53 -24 -53 -54v-418c0 -30 23 -54 53 -54h155c30 0 53 24 53 54v418c0 30 -23 54 -53 54zM212 783c-7 0 -16 -7 -16 -29
v-6c0 -9 -7 -16 -16 -16h-38c-9 0 -16 7 -16 16v16c0 57 37 93 85 93c46 0 94 -51 128 -51c17 0 27 7 27 29v6c0 9 7 16 16 16h38c9 0 16 -7 16 -16v-16c0 -60 -39 -93 -85 -93c-70 0 -112 51 -139 51z" />
    <glyph glyph-name="macron" unicode="&#xaf;" horiz-adv-x="320"
d="M284 598h-248c-9 0 -16 7 -16 16v41c0 9 7 16 16 16h248c9 0 16 -7 16 -16v-41c0 -9 -7 -16 -16 -16z" />
    <glyph glyph-name="dollar" unicode="$"
d="M220 -44v44h-158c-9 0 -16 7 -16 16v41c0 9 7 16 16 16h158v229l-37 18c-80 39 -127 62 -127 143v61c0 71 56 128 127 128h37v44c0 9 6 16 15 16h41c9 0 16 -7 16 -16v-44h113c9 0 16 -7 16 -16v-41c0 -9 -7 -16 -16 -16h-113v-221l33 -16c90 -44 127 -68 127 -150v-64
c0 -71 -56 -128 -127 -128h-33v-44c0 -9 -7 -16 -16 -16h-41c-9 0 -15 7 -15 16zM148 467c0 -32 21 -48 53 -64l19 -10v186h-19c-30 0 -53 -24 -53 -54v-58zM307 259l-15 7v-193h15c30 0 53 24 53 54v68c0 30 -12 44 -53 64z" />
    <glyph glyph-name="cent" unicode="&#xa2;"
d="M221 16v86c-106 11 -160 77 -160 194v143c0 83 52 143 160 155v62c0 9 6 16 15 16h41c9 0 16 -7 16 -16v-60c105 -10 163 -72 163 -137v-19c0 -9 -7 -16 -16 -16h-54c-9 0 -15 7 -15 16v20c0 25 -26 53 -78 61v-348h147c9 0 16 -7 16 -16v-41c0 -9 -7 -16 -16 -16h-147
v-84c0 -9 -7 -16 -16 -16h-41c-9 0 -15 7 -15 16zM149 295c0 -60 25 -99 72 -115v340c-51 -9 -72 -36 -72 -80v-145z" />
    <glyph glyph-name="sterling" unicode="&#xa3;"
d="M404 308h-162c-3 -11 -6 -21 -10 -30l-88 -189c-1 -2 -1 -4 -1 -6c0 -7 9 -10 16 -10h203c9 0 16 6 16 15v32c0 9 7 16 16 16h41c9 0 16 -7 16 -16v-104c0 -9 -7 -16 -16 -16h-374c-9 0 -15 7 -15 16v52c0 9 5 22 9 31l86 185c3 7 6 15 8 24h-93c-9 0 -16 7 -16 16v41
c0 9 7 16 16 16h99v143c0 98 49 148 147 148h120c9 0 16 -7 16 -16v-41c0 -9 -7 -16 -16 -16h-102c-48 0 -73 -26 -73 -74v-144h157c9 0 16 -7 16 -16v-41c0 -9 -7 -16 -16 -16z" />
    <glyph glyph-name="yen" unicode="&#xa5;"
d="M275 418l100 238c6 14 11 16 23 16h54c11 0 16 -3 16 -11c0 -5 -2 -11 -5 -19l-133 -290h94c9 0 16 -7 16 -16v-41c0 -9 -7 -16 -16 -16h-127v-77h117c9 0 16 -7 16 -16v-41c0 -9 -7 -16 -16 -16h-117v-113c0 -9 -7 -16 -16 -16h-61c-9 0 -15 7 -15 16v113h-129
c-9 0 -16 7 -16 16v41c0 9 7 16 16 16h129v77h-129c-9 0 -16 7 -16 16v41c0 9 7 16 16 16h96l-131 290c-3 8 -5 14 -5 19c0 8 5 11 16 11h57c12 0 17 -2 23 -16l98 -238c8 -20 14 -28 22 -28c10 0 15 10 23 28z" />
    <glyph glyph-name="summation" unicode="&#x2211;" horiz-adv-x="513"
d="M158 543l242 -117c12 -6 20 -18 20 -30v-78c0 -12 -9 -23 -20 -30l-242 -160c-8 -5 -16 -12 -16 -21v-19c0 -9 7 -15 16 -15h319c9 0 16 -7 16 -16v-42c0 -9 -7 -15 -16 -15h-392c-9 0 -16 6 -16 15v126c0 12 9 23 20 30l242 161c8 5 16 11 16 18v4c0 5 -8 11 -16 15
l-242 115c-12 6 -20 19 -20 31v142c0 9 7 15 16 15h372c9 0 16 -6 16 -15v-42c0 -9 -7 -16 -16 -16h-299c-9 0 -16 -6 -16 -15v-21c0 -9 8 -16 16 -20z" />
    <glyph glyph-name="mu" unicode="&#xb5;" horiz-adv-x="483"
d="M60 -169v640c0 9 7 16 16 16h57c9 0 15 -7 15 -16v-349c0 -28 24 -49 53 -49h48c73 0 85 37 85 94v304c0 9 7 16 16 16h57c9 0 15 -7 15 -16v-455c0 -9 -7 -16 -16 -16h-51c-9 0 -15 7 -15 16v40c0 3 -2 5 -5 5c-2 0 -4 -1 -5 -3c-17 -39 -45 -58 -109 -58h-34
c-14 0 -27 1 -39 4v-173c0 -9 -7 -16 -16 -16h-57c-9 0 -15 7 -15 16z" />
    <glyph glyph-name="mu" unicode="&#x3bc;" horiz-adv-x="483"
d="M60 -169v640c0 9 7 16 16 16h57c9 0 15 -7 15 -16v-349c0 -28 24 -49 53 -49h48c73 0 85 37 85 94v304c0 9 7 16 16 16h57c9 0 15 -7 15 -16v-455c0 -9 -7 -16 -16 -16h-51c-9 0 -15 7 -15 16v40c0 3 -2 5 -5 5c-2 0 -4 -1 -5 -3c-17 -39 -45 -58 -109 -58h-34
c-14 0 -27 1 -39 4v-173c0 -9 -7 -16 -16 -16h-57c-9 0 -15 7 -15 16z" />
    <glyph glyph-name="scaron" unicode="&#x161;" horiz-adv-x="387"
d="M35 80c10 0 91 -17 125 -17c52 0 114 7 114 58c0 46 -65 73 -133 108c-60 31 -119 69 -119 136c0 101 84 132 188 132c30 0 81 -4 119 -12c9 -2 10 -5 10 -16v-47c0 -8 -3 -11 -10 -11c-5 0 -19 3 -42 6c-28 3 -61 7 -80 7c-44 0 -92 -6 -92 -51c0 -33 51 -60 107 -88
c69 -35 146 -75 146 -152c0 -112 -98 -143 -208 -143c-31 0 -95 7 -125 14c-13 3 -14 8 -14 16v45c0 8 6 15 14 15zM210 547h-36c-12 0 -23 9 -31 20l-68 85c-5 6 -7 13 -7 18c0 7 7 12 14 12h40c10 0 13 -2 22 -12l33 -34c6 -7 10 -9 15 -9s9 2 15 9l33 34
c9 10 12 12 22 12h40c7 0 14 -5 14 -12c0 -5 -2 -12 -7 -18l-68 -85c-8 -11 -19 -20 -31 -20z" />
    <glyph glyph-name="yacute" unicode="&#xfd;" horiz-adv-x="436"
d="M86 -121h6c53 0 91 14 107 76l12 45h-53c-12 0 -19 7 -22 20l-121 437c-1 6 -3 11 -3 16c0 8 4 14 14 14h61c9 0 15 -7 17 -16l97 -382c2 -9 6 -16 15 -16h5c9 0 13 7 15 16l99 382c2 9 8 16 17 16h58c10 0 14 -6 14 -14c0 -5 -2 -10 -3 -16l-137 -495
c-31 -113 -73 -156 -174 -156h-24c-9 0 -16 7 -16 16v41c0 9 7 16 16 16zM233 672h46c12 0 24 -4 24 -16c0 -9 -8 -19 -15 -25l-80 -72c-10 -9 -18 -12 -28 -12h-34c-7 0 -14 5 -14 12c0 5 2 12 7 18l63 75c9 10 19 20 31 20z" />
    <glyph glyph-name="product" unicode="&#x220f;" horiz-adv-x="574"
d="M505 656v-640c0 -9 -6 -16 -15 -16h-61c-9 0 -16 7 -16 16v567c0 9 -6 16 -15 16h-222c-9 0 -15 -7 -15 -16v-567c0 -9 -7 -16 -16 -16h-61c-9 0 -15 7 -15 16v640c0 9 6 16 15 16h406c9 0 15 -7 15 -16z" />
    <glyph glyph-name="hungarumlaut" unicode="&#x2dd;" horiz-adv-x="351"
d="M119 672h46c12 0 24 -4 24 -16c0 -9 -8 -19 -15 -25l-80 -72c-10 -9 -18 -12 -28 -12h-34c-7 0 -14 5 -14 12c0 5 2 12 7 18l63 75c9 10 19 20 31 20zM269 672h46c12 0 24 -4 24 -16c0 -9 -8 -19 -15 -25l-80 -72c-10 -9 -18 -12 -28 -12h-34c-7 0 -14 5 -14 12
c0 5 2 12 7 18l63 75c9 10 19 20 31 20z" />
    <glyph glyph-name="twosuperior" unicode="&#xb2;" horiz-adv-x="300"
d="M31 315v42c0 28 5 39 37 67l100 87c16 14 28 32 28 48v27c0 20 -9 32 -29 32h-107c-14 0 -19 6 -19 15v24c0 9 5 15 19 15h118c60 0 91 -28 91 -87v-29c0 -41 -11 -53 -72 -104c-33 -28 -95 -76 -95 -91v-6h99v18c0 9 8 16 18 16h25c11 0 19 -7 19 -16v-56
c0 -9 -7 -16 -18 -16h-197c-10 0 -17 5 -17 14z" />
    <glyph glyph-name="threesuperior" unicode="&#xb3;" horiz-adv-x="300"
d="M245 609l-76 -85c63 -4 99 -44 99 -87c0 -90 -91 -141 -208 -141c-10 0 -19 5 -19 16v25c0 11 9 16 19 16c84 0 137 33 137 80c0 23 -18 36 -42 36h-57c-11 0 -14 6 -14 16v18c0 8 8 15 14 22l81 91h-90v-16c0 -10 -7 -16 -18 -16h-21c-11 0 -18 6 -18 16v54
c0 11 7 18 18 18h187c13 0 16 -7 16 -18v-22c0 -7 0 -15 -8 -23z" />
    <glyph glyph-name="onesuperior" unicode="&#xb9;" horiz-adv-x="300"
d="M45 316v26c0 7 4 13 16 13h64v229l-9 -12c-8 -11 -15 -19 -31 -19h-23c-10 0 -16 5 -16 15v26c0 8 7 13 17 13h8c3 0 6 2 9 5l33 47c8 11 11 13 25 13h41c10 0 18 -6 18 -15v-302h49c11 0 16 -6 16 -13v-26c0 -9 -5 -15 -16 -15h-185c-12 0 -16 6 -16 15z" />
    <glyph glyph-name="section" unicode="&#xa7;"
d="M436 338c0 -55 -28 -89 -64 -111c31 -20 54 -47 54 -84c0 -112 -98 -153 -208 -153c-31 0 -95 7 -125 14c-13 3 -14 8 -14 16v45c0 8 6 15 14 15c12 0 91 -17 125 -17c52 0 114 17 114 68c0 84 -262 78 -262 214c0 49 28 84 67 106c-33 22 -57 49 -57 89
c0 101 84 142 188 142c30 0 81 -4 119 -12c9 -2 10 -5 10 -16v-47c0 -8 -3 -11 -10 -11c-5 0 -19 3 -42 6c-28 3 -61 7 -80 7c-44 0 -92 -16 -92 -58c0 -84 263 -87 263 -213zM342 326c0 42 -66 63 -132 90c-27 -11 -47 -34 -47 -63c0 -46 71 -66 139 -93c23 14 40 39 40 66
z" />
    <glyph glyph-name="germandbls" unicode="&#xdf;" horiz-adv-x="584"
d="M60 16v528c0 71 56 128 127 128h162c71 0 127 -57 127 -128v-114c0 -9 -7 -16 -16 -16h-101c-30 0 -53 -24 -53 -54v-8c0 -33 18 -47 53 -54l74 -16c98 -21 127 -58 127 -140v-14c0 -71 -56 -128 -127 -128h-173c-9 0 -16 7 -16 16v41c0 9 7 16 16 16h161
c30 0 53 24 53 54v18c0 30 -9 44 -53 54l-74 16c-87 19 -127 52 -127 133v11c0 71 56 128 127 128h37v58c0 30 -23 54 -53 54h-130c-30 0 -53 -24 -53 -54v-529c0 -9 -7 -16 -16 -16h-57c-9 0 -15 7 -15 16z" />
    <glyph glyph-name="brokenbar" unicode="&#xa6;" horiz-adv-x="302"
d="M110 6v260c0 9 6 16 15 16h51c9 0 16 -7 16 -16v-260c0 -9 -7 -16 -16 -16h-51c-9 0 -15 7 -15 16zM110 426v240c0 9 6 16 15 16h51c9 0 16 -7 16 -16v-240c0 -9 -7 -16 -16 -16h-51c-9 0 -15 7 -15 16z" />
    <glyph glyph-name="zerosuperior" unicode="&#x2070;" horiz-adv-x="300"
d="M116 672h67c59 0 89 -28 89 -87v-197c0 -58 -30 -87 -89 -87h-67c-60 0 -89 29 -89 87v197c0 59 29 87 89 87zM173 618h-47c-20 0 -26 -7 -26 -32v-198c0 -25 6 -33 26 -33h47c20 0 27 8 27 33v198c0 25 -7 32 -27 32z" />
    <glyph glyph-name="foursuperior" unicode="&#x2074;" horiz-adv-x="300"
d="M136 318v22c0 7 9 15 20 15h19v57h-131c-13 0 -20 8 -20 17v30c0 10 3 24 4 27l39 171c2 7 5 15 18 15h35c12 0 18 -7 18 -15c0 -2 -1 -10 -2 -13l-41 -179h80v107c0 8 10 14 21 14h31c13 0 20 -6 20 -14v-217h5c10 0 16 -8 16 -15v-22c0 -9 -9 -17 -19 -17h-93
c-11 0 -20 8 -20 17z" />
    <glyph glyph-name="fivesuperior" unicode="&#x2075;" horiz-adv-x="300"
d="M62 351c84 0 132 34 132 85c0 26 -16 34 -41 34h-90c-13 0 -20 8 -20 17v168c0 9 7 17 20 17h177c10 0 19 -8 19 -17v-20c0 -9 -9 -17 -19 -17h-130v-91h51c72 0 106 -43 106 -86c0 -88 -86 -145 -205 -145c-11 0 -21 8 -21 17v23c0 7 10 15 21 15z" />
    <glyph glyph-name="sixsuperior" unicode="&#x2076;" horiz-adv-x="300"
d="M211 618c-64 0 -99 -40 -109 -91h82c60 0 91 -27 91 -85v-54c0 -58 -31 -87 -90 -87h-68c-59 0 -89 29 -89 87v110c0 93 61 174 175 174h8c11 0 20 -8 20 -17v-20c0 -9 -9 -17 -20 -17zM128 355h46c20 0 28 11 28 33v54c0 20 -8 30 -28 30h-73v-84c0 -22 7 -33 27 -33z
" />
    <glyph glyph-name="sevensuperior" unicode="&#x2077;" horiz-adv-x="300"
d="M192 618h-99v-18c0 -11 -10 -16 -21 -16h-22c-11 0 -20 5 -20 16v55c0 9 9 17 20 17h197c11 0 21 -8 21 -17v-24c0 -5 -3 -15 -6 -22l-107 -233c-4 -9 -6 -25 -6 -36v-22c0 -9 -10 -17 -19 -17h-33c-10 0 -19 8 -19 17v30c0 10 2 25 9 40z" />
    <glyph glyph-name="eightsuperior" unicode="&#x2078;" horiz-adv-x="300"
d="M184 301h-67c-60 0 -90 29 -90 87v45c0 35 16 63 40 77c-11 11 -19 26 -19 40v46c0 43 35 76 79 76h46c43 0 79 -33 79 -76v-46c0 -16 -4 -29 -18 -40c22 -14 39 -42 39 -77v-45c0 -58 -30 -87 -89 -87zM126 355h48c17 0 27 12 27 33v51c0 19 -10 30 -27 30h-48
c-18 0 -28 -11 -28 -30v-51c0 -21 10 -33 28 -33zM136 523h27c10 0 17 10 17 22v51c0 12 -7 22 -17 22h-27c-9 0 -16 -10 -16 -22v-51c0 -12 7 -22 16 -22z" />
    <glyph glyph-name="ninesuperior" unicode="&#x2079;" horiz-adv-x="300"
d="M172 460h-59c-61 0 -90 28 -90 85v40c0 54 33 87 90 87h66c58 0 89 -30 89 -87v-62c0 -50 -15 -78 -44 -124l-56 -89c-4 -6 -9 -9 -21 -9h-40c-9 0 -14 8 -14 16c0 2 0 4 1 6l68 104c7 11 14 23 19 34c-3 -1 -6 -1 -9 -1zM95 586v-41c0 -24 7 -32 27 -32h74v73
c0 20 -9 32 -26 32h-48c-17 0 -27 -12 -27 -32z" />
    <glyph glyph-name="onehalf" unicode="&#xbd;" horiz-adv-x="770"
d="M15 316v26c0 7 4 13 16 13h64v229l-9 -12c-8 -11 -15 -19 -31 -19h-23c-10 0 -16 5 -16 15v26c0 8 7 13 17 13h8c3 0 6 2 9 5l33 47c8 11 11 13 25 13h41c10 0 18 -6 18 -15v-302h49c11 0 16 -6 16 -13v-26c0 -9 -5 -15 -16 -15h-185c-12 0 -16 6 -16 15zM159 27l317 645
c4 9 12 13 21 9l30 -16c8 -4 11 -13 7 -21l-317 -645c-4 -9 -13 -11 -21 -6l-30 14c-8 4 -11 12 -7 20zM462 14v42c0 28 5 39 37 67l100 87c16 14 28 32 28 48v27c0 20 -9 32 -29 32h-107c-14 0 -19 6 -19 15v24c0 9 5 15 19 15h118c60 0 91 -28 91 -87v-29
c0 -41 -11 -53 -72 -104c-33 -28 -95 -76 -95 -91v-6h99v18c0 9 8 16 18 16h25c11 0 19 -7 19 -16v-56c0 -9 -7 -16 -18 -16h-197c-10 0 -17 5 -17 14z" />
    <glyph glyph-name="onequarter" unicode="&#xbc;" horiz-adv-x="770"
d="M15 316v26c0 7 4 13 16 13h64v229l-9 -12c-8 -11 -15 -19 -31 -19h-23c-10 0 -16 5 -16 15v26c0 8 7 13 17 13h8c3 0 6 2 9 5l33 47c8 11 11 13 25 13h41c10 0 18 -6 18 -15v-302h49c11 0 16 -6 16 -13v-26c0 -9 -5 -15 -16 -15h-185c-12 0 -16 6 -16 15zM159 27l317 645
c4 9 12 13 21 9l30 -16c8 -4 11 -13 7 -21l-317 -645c-4 -9 -13 -11 -21 -6l-30 14c-8 4 -11 12 -7 20zM547 17v22c0 7 9 15 20 15h19v57h-131c-13 0 -20 8 -20 17v30c0 10 3 24 4 27l39 171c2 7 5 15 18 15h35c12 0 18 -7 18 -15c0 -2 -1 -10 -2 -13l-41 -179h80v107
c0 8 10 14 21 14h31c13 0 20 -6 20 -14v-217h5c10 0 16 -8 16 -15v-22c0 -9 -9 -17 -19 -17h-93c-11 0 -20 8 -20 17z" />
    <glyph glyph-name="threequarters" unicode="&#xbe;" horiz-adv-x="770"
d="M245 609l-76 -85c63 -4 99 -44 99 -87c0 -90 -91 -141 -208 -141c-10 0 -19 5 -19 16v25c0 11 9 16 19 16c84 0 137 33 137 80c0 23 -18 36 -42 36h-57c-11 0 -14 6 -14 16v18c0 8 8 15 14 22l81 91h-90v-16c0 -10 -7 -16 -18 -16h-21c-11 0 -18 6 -18 16v54
c0 11 7 18 18 18h187c13 0 16 -7 16 -18v-22c0 -7 0 -15 -8 -23zM198 27l317 645c4 9 12 13 21 9l30 -16c8 -4 11 -13 7 -21l-317 -645c-4 -9 -13 -11 -21 -6l-30 14c-8 4 -11 12 -7 20zM587 17v22c0 7 9 15 20 15h19v57h-131c-13 0 -20 8 -20 17v30c0 10 3 24 4 27l39 171
c2 7 5 15 18 15h35c12 0 18 -7 18 -15c0 -2 -1 -10 -2 -13l-41 -179h80v107c0 8 10 14 21 14h31c13 0 20 -6 20 -14v-217h5c10 0 16 -8 16 -15v-22c0 -9 -9 -17 -19 -17h-93c-11 0 -20 8 -20 17z" />
    <glyph glyph-name="asterisk" unicode="*" horiz-adv-x="328"
d="M164 493l-53 -71c-3 -4 -6 -7 -10 -7c-2 0 -5 2 -7 3l-18 13c-3 2 -5 7 -5 11s1 8 3 11l51 68l-82 28c-5 2 -13 7 -13 14c0 1 0 2 1 3l7 21c1 5 5 10 13 10c2 0 4 0 7 -1l83 -28v90c0 7 5 14 12 14h22c7 0 13 -7 13 -14v-90l84 29c3 1 5 1 7 1c5 0 8 -3 11 -11l7 -21
c1 -2 1 -4 1 -5c0 -6 -4 -9 -13 -12l-82 -28l53 -72c1 -2 3 -4 3 -7c0 -4 -3 -9 -6 -11l-17 -12c-3 -2 -7 -4 -10 -4s-6 2 -9 6z" />
    <glyph glyph-name="ogonek" unicode="&#x2db;" horiz-adv-x="192"
d="M82 5h81c-31 -35 -69 -88 -69 -111c0 -20 12 -29 37 -29c13 0 26 7 30 7c5 0 8 -4 8 -11v-29c0 -25 -43 -26 -57 -26c-46 0 -95 25 -95 78c0 40 35 88 65 121z" />
    <glyph glyph-name="cedilla" unicode="&#xb8;" horiz-adv-x="237"
d="M212 -111c0 -57 -43 -86 -115 -86c-20 0 -37 2 -50 5c-8 2 -21 5 -21 23v17c0 11 6 14 14 14c7 0 39 -10 54 -10c39 0 53 18 53 33c0 20 -22 30 -53 30h-44v90h56v-39c70 -1 106 -24 106 -77z" />
    <glyph glyph-name="registered" unicode="&#xae;" horiz-adv-x="693"
d="M401 311l91 -142c2 -3 3 -5 3 -8c0 -8 -7 -14 -18 -14h-37c-11 0 -23 10 -33 26l-63 100c-12 18 -22 35 -22 48v27c0 9 10 17 21 17h51c10 0 17 9 17 22v58c0 11 -7 20 -17 20h-94v-303c0 -9 -8 -15 -19 -15h-34c-13 0 -19 6 -19 15v303h-13c-11 0 -21 5 -21 16v23
c0 9 10 15 21 15h189c43 0 80 -34 80 -75v-56c0 -44 -36 -77 -79 -77h-4zM196 672h301c71 0 127 -57 127 -128v-416c0 -71 -56 -128 -127 -128h-301c-71 0 -127 57 -127 128v416c0 71 56 128 127 128zM489 603h-285c-30 0 -53 -24 -53 -54v-426c0 -30 23 -54 53 -54h285
c30 0 53 24 53 54v426c0 30 -23 54 -53 54z" />
    <glyph glyph-name="copyright" unicode="&#xa9;" horiz-adv-x="693"
d="M402 423v22c0 11 -7 20 -17 20h-73c-8 0 -15 -9 -15 -20v-224c0 -10 7 -20 15 -20h73c10 0 17 10 17 20v30c0 9 7 17 20 17h32c13 0 20 -8 20 -17v-29c0 -41 -36 -75 -79 -75h-91c-45 0 -79 34 -79 75v222c0 41 34 75 79 75h91c43 0 79 -34 79 -75v-21
c0 -9 -7 -17 -20 -17h-32c-13 0 -20 8 -20 17zM196 672h301c71 0 127 -57 127 -128v-416c0 -71 -56 -128 -127 -128h-301c-71 0 -127 57 -127 128v416c0 71 56 128 127 128zM489 603h-285c-30 0 -53 -24 -53 -54v-426c0 -30 23 -54 53 -54h285c30 0 53 24 53 54v426
c0 30 -23 54 -53 54z" />
    <glyph glyph-name="Ccedilla" unicode="&#xc7;" horiz-adv-x="520"
d="M402 -111c0 -57 -43 -86 -115 -86c-20 0 -37 2 -50 5c-8 2 -21 5 -21 23v17c0 11 6 14 14 14c7 0 39 -10 54 -10c39 0 53 18 53 33c0 20 -22 30 -53 30h-44v85h-54c-71 0 -127 57 -127 128v416c0 71 56 128 127 128h171c71 0 127 -57 127 -128v-39c0 -9 -7 -16 -16 -16
h-61c-9 0 -15 7 -15 16v40c0 30 -23 54 -53 54h-135c-30 0 -53 -24 -53 -54v-418c0 -30 23 -54 53 -54h135c30 0 53 24 53 54v54c0 9 6 16 15 16h61c9 0 16 -7 16 -16v-53c0 -71 -56 -128 -127 -128h-61v-34c70 -1 106 -24 106 -77z" />
    <glyph glyph-name="ccedilla" unicode="&#xe7;" horiz-adv-x="435"
d="M390 -111c0 -57 -43 -86 -115 -86c-20 0 -37 2 -50 5c-8 2 -21 5 -21 23v17c0 11 6 14 14 14c7 0 39 -10 54 -10c39 0 53 18 53 33c0 20 -22 30 -53 30h-44v85c-118 6 -178 73 -178 196v163c0 71 46 138 183 138c124 0 172 -67 172 -138v-19c0 -9 -7 -16 -16 -16h-54
c-9 0 -15 7 -15 16v20c0 30 -17 64 -90 64c-80 0 -92 -34 -92 -64v-165c0 -79 44 -122 123 -122h128c9 0 16 -7 16 -16v-41c0 -9 -7 -16 -16 -16h-105v-34c70 -1 106 -24 106 -77z" />
    <glyph glyph-name="Egrave" unicode="&#xc8;" horiz-adv-x="476"
d="M69 16v640c0 9 6 16 15 16h354c9 0 16 -7 16 -16v-41c0 -9 -7 -16 -16 -16h-262c-9 0 -15 -7 -15 -16v-185c0 -9 6 -16 15 -16h173c9 0 16 -7 16 -16v-41c0 -9 -7 -16 -16 -16h-173c-9 0 -15 -7 -15 -16v-204c0 -9 6 -16 15 -16h262c9 0 16 -7 16 -16v-41
c0 -9 -7 -16 -16 -16h-354c-9 0 -15 7 -15 16zM176 857h46c12 0 22 -10 31 -20l63 -75c5 -6 7 -13 7 -18c0 -7 -7 -12 -14 -12h-34c-10 0 -18 3 -28 12l-80 72c-7 6 -15 16 -15 25c0 12 12 16 24 16z" />
    <glyph glyph-name="lozenge" unicode="&#x25ca;" horiz-adv-x="436"
d="M13 307v60l123 285c5 12 10 20 22 20h121c12 0 17 -7 22 -20l122 -285v-60l-122 -287c-5 -13 -10 -20 -22 -20h-121c-12 0 -17 7 -22 20zM335 353l-101 240c-4 8 -6 16 -16 16c-9 0 -11 -8 -15 -16l-99 -240v-32l99 -242c4 -8 6 -16 15 -16c10 0 12 8 16 16l101 242v32z
" />
    <glyph glyph-name="ordfeminine" unicode="&#xaa;" horiz-adv-x="353"
d="M149 401h25c42 0 54 22 54 57v41c-41 -10 -107 -15 -107 -55v-12c0 -18 12 -31 28 -31zM304 578v-164c0 -20 28 -7 28 -27v-26c0 -8 -6 -15 -16 -15h-26c-26 0 -44 13 -51 33c-13 -22 -33 -33 -72 -33h-39c-49 0 -83 35 -83 83v18c0 78 112 87 183 101v26
c0 31 -30 44 -60 44c-27 0 -85 -9 -92 -9c-8 0 -12 3 -12 12v29c0 6 0 12 8 14c22 4 77 8 94 8c74 0 138 -23 138 -94zM317 252h-248c-9 0 -16 7 -16 16v31c0 9 7 16 16 16h248c9 0 16 -7 16 -16v-31c0 -9 -7 -16 -16 -16z" />
    <glyph glyph-name="ordmasculine" unicode="&#xba;" horiz-adv-x="380"
d="M129 575v-137c0 -24 13 -43 61 -43s61 19 61 43v137c0 23 -13 43 -61 43s-61 -20 -61 -43zM54 432v149c0 47 45 91 136 91s137 -44 137 -91v-149c0 -47 -46 -92 -137 -92s-136 45 -136 92zM311 252h-242c-9 0 -16 7 -16 16v31c0 9 7 16 16 16h242c9 0 16 -7 16 -16v-31
c0 -9 -7 -16 -16 -16z" />
    <glyph glyph-name="Omega" unicode="&#x3a9;" horiz-adv-x="673"
d="M313 84v-68c0 -9 -6 -16 -15 -16h-214c-9 0 -16 7 -16 16v104c0 9 7 16 16 16h41c9 0 16 -7 16 -16v-32c0 -9 7 -15 16 -15h49c9 0 15 4 15 17v7c0 21 -4 38 -13 52l-67 102c-74 113 -82 131 -82 207v66c0 98 49 148 147 148h261c98 0 147 -50 147 -148v-66
c0 -76 -8 -94 -82 -207l-67 -102c-9 -14 -13 -31 -13 -52v-7c0 -13 6 -17 15 -17h49c9 0 16 6 16 15v32c0 9 7 16 16 16h41c9 0 16 -7 16 -16v-104c0 -9 -7 -16 -16 -16h-214c-9 0 -15 7 -15 16v68c0 50 3 62 44 123l90 134c26 38 28 80 28 121v63c0 48 -25 74 -73 74h-225
c-48 0 -73 -26 -73 -74v-63c0 -41 2 -83 28 -121l90 -134c41 -61 44 -73 44 -123z" />
    <glyph glyph-name="Omega" unicode="&#x2126;" horiz-adv-x="673"
d="M313 84v-68c0 -9 -6 -16 -15 -16h-214c-9 0 -16 7 -16 16v104c0 9 7 16 16 16h41c9 0 16 -7 16 -16v-32c0 -9 7 -15 16 -15h49c9 0 15 4 15 17v7c0 21 -4 38 -13 52l-67 102c-74 113 -82 131 -82 207v66c0 98 49 148 147 148h261c98 0 147 -50 147 -148v-66
c0 -76 -8 -94 -82 -207l-67 -102c-9 -14 -13 -31 -13 -52v-7c0 -13 6 -17 15 -17h49c9 0 16 6 16 15v32c0 9 7 16 16 16h41c9 0 16 -7 16 -16v-104c0 -9 -7 -16 -16 -16h-214c-9 0 -15 7 -15 16v68c0 50 3 62 44 123l90 134c26 38 28 80 28 121v63c0 48 -25 74 -73 74h-225
c-48 0 -73 -26 -73 -74v-63c0 -41 2 -83 28 -121l90 -134c41 -61 44 -73 44 -123z" />
    <glyph glyph-name="lslash" unicode="&#x142;" horiz-adv-x="221"
d="M63 115v221l-18 -12c-4 -3 -7 -4 -10 -4c-8 0 -13 7 -13 15v32c0 13 2 15 16 25l25 17v247c0 9 6 16 15 16h57c9 0 16 -7 16 -16v-188l25 17c6 4 12 7 16 7c6 0 10 -5 10 -16v-32c0 -11 -6 -18 -16 -25l-35 -24v-266c0 -49 12 -67 41 -67c9 0 15 -7 15 -16v-31
c0 -9 -6 -15 -15 -15h-33c-78 0 -96 33 -96 115z" />
    <glyph glyph-name="infinity" unicode="&#x221e;" horiz-adv-x="642"
d="M316 184c-17 -32 -50 -49 -81 -49h-57c-71 0 -128 36 -128 107v87c0 71 57 107 128 107h57c31 0 64 -17 81 -49c17 32 60 49 91 49h57c71 0 128 -36 128 -107v-87c0 -71 -57 -107 -128 -107h-57c-31 0 -74 17 -91 49zM362 311v-51c0 -30 24 -53 54 -53h49
c30 0 54 23 54 53v51c0 30 -24 53 -54 53h-49c-30 0 -54 -23 -54 -53zM280 260v51c0 30 -24 53 -54 53h-49c-30 0 -54 -23 -54 -53v-51c0 -30 24 -53 54 -53h49c30 0 54 23 54 53z" />
    <glyph glyph-name="l" unicode="l" horiz-adv-x="223"
d="M63 115v541c0 9 6 16 15 16h57c9 0 16 -7 16 -16v-521c0 -49 12 -67 41 -67c9 0 15 -7 15 -16v-37c0 -9 -6 -15 -15 -15h-33c-71 0 -96 33 -96 115z" />
    <glyph glyph-name="E" unicode="E" horiz-adv-x="476"
d="M69 16v640c0 9 6 16 15 16h354c9 0 16 -7 16 -16v-41c0 -9 -7 -16 -16 -16h-262c-9 0 -15 -7 -15 -16v-185c0 -9 6 -16 15 -16h173c9 0 16 -7 16 -16v-41c0 -9 -7 -16 -16 -16h-173c-9 0 -15 -7 -15 -16v-204c0 -9 6 -16 15 -16h262c9 0 16 -7 16 -16v-41
c0 -9 -7 -16 -16 -16h-354c-9 0 -15 7 -15 16z" />
    <glyph glyph-name="breve" unicode="&#x2d8;" horiz-adv-x="300"
d="M199 647v8c0 9 9 17 19 17h35c9 0 19 -8 19 -17v-8c0 -78 -50 -107 -109 -107h-27c-60 0 -109 29 -109 107v8c0 9 9 17 19 17h35c9 0 19 -8 19 -17v-8c0 -45 26 -53 46 -53h6c20 0 47 8 47 53z" />
    <glyph glyph-name="orn.001" horiz-adv-x="297"
d="M115 213v337l-36 -40c-7 -8 -16 -12 -25 -12c-19 0 -34 17 -34 34c0 8 3 16 9 22l95 107c6 7 15 11 25 11c9 0 18 -4 25 -11l94 -107c6 -6 9 -14 9 -22c0 -20 -16 -33 -33 -33c-9 0 -19 3 -26 11l-36 40v-337c0 -19 -15 -34 -33 -34c-19 0 -34 15 -34 34z" />
    <glyph glyph-name="orn.002" horiz-adv-x="297"
d="M115 -72v337c0 19 15 34 34 34c18 0 33 -15 33 -34v-337l36 40c7 8 17 11 26 11c17 0 33 -13 33 -33c0 -8 -3 -16 -9 -22l-94 -107c-7 -7 -16 -11 -25 -11c-10 0 -19 4 -25 11l-95 107c-6 6 -9 14 -9 22c0 17 15 34 34 34c9 0 18 -4 25 -12z" />
    <glyph glyph-name="orn.003" horiz-adv-x="533"
d="M479 314h-337l40 -36c8 -7 12 -16 12 -25c0 -19 -17 -34 -34 -34c-8 0 -16 3 -22 9l-107 95c-7 6 -11 15 -11 25c0 9 4 18 11 25l107 94c6 6 14 9 22 9c20 0 33 -16 33 -33c0 -9 -3 -19 -11 -26l-40 -36h337c19 0 34 -15 34 -33c0 -19 -15 -34 -34 -34z" />
    <glyph glyph-name="orn.004" horiz-adv-x="533"
d="M391 314h-337c-19 0 -34 15 -34 34c0 18 15 33 34 33h337l-40 36c-8 7 -11 17 -11 26c0 17 13 33 33 33c8 0 16 -3 22 -9l107 -94c7 -7 11 -16 11 -25c0 -10 -4 -19 -11 -25l-107 -95c-6 -6 -14 -9 -22 -9c-17 0 -34 15 -34 34c0 9 4 18 12 25z" />
    <glyph glyph-name="orn.005" horiz-adv-x="297"
d="M115 -160v710l-36 -40c-7 -8 -16 -12 -25 -12c-19 0 -34 17 -34 34c0 8 3 16 9 22l95 107c6 7 15 11 25 11c9 0 18 -4 25 -11l94 -107c6 -6 9 -14 9 -22c0 -20 -16 -33 -33 -33c-9 0 -19 3 -26 11l-36 40v-710c0 -19 -15 -34 -33 -34c-19 0 -34 15 -34 34z" />
    <glyph glyph-name="orn.006" horiz-adv-x="297"
d="M115 -72v710c0 19 15 34 34 34c18 0 33 -15 33 -34v-710l36 40c7 8 17 11 26 11c17 0 33 -13 33 -33c0 -8 -3 -16 -9 -22l-94 -107c-7 -7 -16 -11 -25 -11c-10 0 -19 4 -25 11l-95 107c-6 6 -9 14 -9 22c0 17 15 34 34 34c9 0 18 -4 25 -12z" />
    <glyph glyph-name="orn.007" horiz-adv-x="906"
d="M852 314l-710 1l40 -36c8 -7 12 -16 12 -25c0 -19 -17 -34 -34 -34c-8 0 -16 3 -22 9l-107 95c-7 6 -11 15 -11 25c0 9 4 17 11 24l107 94c6 6 14 9 22 9c20 0 33 -16 33 -33c0 -9 -3 -19 -11 -26l-40 -36h710c19 0 34 -15 34 -33c0 -19 -15 -34 -34 -34z" />
    <glyph glyph-name="orn.008" horiz-adv-x="906"
d="M764 315l-710 -1c-19 0 -34 15 -34 34c0 18 15 33 34 33h710l-40 36c-8 7 -11 17 -11 26c0 17 13 33 33 33c8 0 16 -3 22 -9l107 -94c7 -7 11 -15 11 -24c0 -10 -4 -19 -11 -25l-107 -95c-6 -6 -14 -9 -22 -9c-17 0 -34 15 -34 34c0 9 4 18 12 25z" />
    <glyph glyph-name="orn.009" horiz-adv-x="605"
d="M423 477v72l-36 -40c-7 -8 -16 -12 -25 -12c-19 0 -34 17 -34 34c0 8 3 16 9 22l95 107c6 7 15 11 25 11c9 0 18 -4 25 -11l94 -107c6 -6 9 -14 9 -22c0 -20 -16 -33 -33 -33c-9 0 -19 3 -26 11l-36 40v-72c0 -70 -19 -115 -66 -161l-195 -194c-28 -28 -47 -71 -47 -108
v-174c0 -19 -15 -34 -33 -34c-19 0 -34 15 -34 34v709l-36 -40c-7 -8 -16 -12 -25 -12c-19 0 -34 17 -34 34c0 8 3 16 9 22l95 107c6 7 15 11 25 11c9 0 18 -4 25 -11l94 -107c6 -6 9 -14 9 -22c0 -20 -16 -33 -33 -33c-9 0 -19 3 -26 11l-36 40v-380l195 194
c32 32 46 71 46 114z" />
    <glyph glyph-name="orn.010" horiz-adv-x="510"
d="M328 477v72l-36 -40c-7 -8 -16 -12 -25 -12c-19 0 -34 17 -34 34c0 8 3 16 9 22l95 107c6 7 15 11 25 11c9 0 18 -4 25 -11l94 -107c6 -6 9 -14 9 -22c0 -20 -16 -33 -33 -33c-9 0 -19 3 -26 11l-36 40v-72c0 -75 -22 -117 -66 -161l-195 -194c-29 -29 -47 -76 -47 -114
v-168c0 -19 -15 -34 -33 -34c-19 0 -34 15 -34 34v168c0 58 27 121 67 161l195 194c28 28 46 65 46 114z" />
    </font>
</defs>
</svg>
